<svg width="25" height="25" viewBox="0 0 25 25" fill="none" xmlns="http://www.w3.org/2000/svg">
<path opacity="0.4" d="M12.7109 22.8928C18.2338 22.8928 22.7109 18.4157 22.7109 12.8928C22.7109 7.36997 18.2338 2.89282 12.7109 2.89282C7.18809 2.89282 2.71094 7.36997 2.71094 12.8928C2.71094 18.4157 7.18809 22.8928 12.7109 22.8928Z" fill="#CACACA"/>
<path d="M12.7111 15.9027C12.5211 15.9027 12.3311 15.8327 12.1811 15.6827L8.65109 12.1527C8.36109 11.8627 8.36109 11.3827 8.65109 11.0927C8.94109 10.8027 9.42109 10.8027 9.71109 11.0927L12.7111 14.0927L15.7111 11.0927C16.0011 10.8027 16.4811 10.8027 16.7711 11.0927C17.0611 11.3827 17.0611 11.8627 16.7711 12.1527L13.2411 15.6827C13.0911 15.8327 12.9011 15.9027 12.7111 15.9027Z" fill="#141414"/>
</svg>
