<svg width="29" height="37" viewBox="0 0 29 37" fill="none" xmlns="http://www.w3.org/2000/svg">
<mask id="path-1-inside-1_2195_26261" fill="white">
<path fill-rule="evenodd" clip-rule="evenodd" d="M1 0.5C1 0.223858 0.776142 0 0.5 0C0.223858 0 0 0.223858 0 0.5V35.5C0 35.7761 0.223858 36 0.5 36C0.223858 36 0 36.2239 0 36.5C0 36.7761 0.223858 37 0.5 37H28.5C28.7761 37 29 36.7761 29 36.5C29 36.2239 28.7761 36 28.5 36H0.5C0.776142 36 1 35.7761 1 35.5V0.5Z"/>
</mask>
<path d="M0.500133 35.5002C0.245053 35.3944 -0.0474794 35.5155 -0.153257 35.7705C-0.259034 36.0256 -0.138001 36.3181 0.117079 36.4239L0.500133 35.5002ZM-0.423923 35.8829C-0.318145 36.138 -0.0256124 36.259 0.229467 36.1533C0.484547 36.0475 0.605581 35.7549 0.499803 35.4999L-0.423923 35.8829ZM0.5 31.125C0.5 30.8489 0.276142 30.625 0 30.625C-0.276142 30.625 -0.5 30.8489 -0.5 31.125H0.5ZM-0.5 22.375C-0.5 22.6511 -0.276142 22.875 0 22.875C0.276142 22.875 0.5 22.6511 0.5 22.375H-0.5ZM0.5 13.625C0.5 13.3489 0.276142 13.125 0 13.125C-0.276142 13.125 -0.5 13.3489 -0.5 13.625H0.5ZM-0.5 4.875C-0.5 5.15114 -0.276142 5.375 0 5.375C0.276142 5.375 0.5 5.15114 0.5 4.875H-0.5ZM0.499803 0.500133C0.605581 0.245053 0.484547 -0.0474795 0.229467 -0.153257C-0.0256127 -0.259034 -0.318145 -0.138001 -0.423923 0.117079L0.499803 0.500133ZM0.117079 -0.423923C-0.138001 -0.318145 -0.259034 -0.0256127 -0.153257 0.229467C-0.0474795 0.484547 0.245053 0.605581 0.500133 0.499803L0.117079 -0.423923ZM0.499867 0.499803C0.754947 0.605581 1.04748 0.484547 1.15326 0.229467C1.25903 -0.0256126 1.138 -0.318145 0.882921 -0.423923L0.499867 0.499803ZM1.42392 0.117079C1.31815 -0.138001 1.02561 -0.259034 0.770533 -0.153257C0.515453 -0.0474795 0.394419 0.245053 0.500197 0.500133L1.42392 0.117079ZM0.5 4.875C0.5 5.15114 0.723858 5.375 1 5.375C1.27614 5.375 1.5 5.15114 1.5 4.875H0.5ZM1.5 13.625C1.5 13.3489 1.27614 13.125 1 13.125C0.723858 13.125 0.5 13.3489 0.5 13.625H1.5ZM0.5 22.375C0.5 22.6511 0.723858 22.875 1 22.875C1.27614 22.875 1.5 22.6511 1.5 22.375H0.5ZM1.5 31.125C1.5 30.8489 1.27614 30.625 1 30.625C0.723858 30.625 0.5 30.8489 0.5 31.125H1.5ZM0.500197 35.4999C0.394419 35.7549 0.515453 36.0475 0.770533 36.1533C1.02561 36.259 1.31815 36.138 1.42392 35.8829L0.500197 35.4999ZM0.882921 36.4239C1.138 36.3181 1.25903 36.0256 1.15326 35.7705C1.04748 35.5155 0.754947 35.3944 0.499867 35.5002L0.882921 36.4239ZM0.117079 35.5761C-0.138001 35.6819 -0.259034 35.9744 -0.153257 36.2295C-0.0474792 36.4845 0.245053 36.6056 0.500133 36.4998L0.117079 35.5761ZM0.499803 36.5001C0.605581 36.2451 0.484547 35.9525 0.229468 35.8467C-0.0256123 35.741 -0.318145 35.862 -0.423923 36.1171L0.499803 36.5001ZM-0.423923 36.8829C-0.318145 37.138 -0.0256123 37.259 0.229467 37.1533C0.484547 37.0475 0.605581 36.7549 0.499803 36.4999L-0.423923 36.8829ZM0.500133 36.5002C0.245053 36.3944 -0.0474792 36.5155 -0.153257 36.7705C-0.259034 37.0256 -0.138001 37.3181 0.117079 37.4239L0.500133 36.5002ZM4 37.5C4.27614 37.5 4.5 37.2761 4.5 37C4.5 36.7239 4.27614 36.5 4 36.5V37.5ZM11 36.5C10.7239 36.5 10.5 36.7239 10.5 37C10.5 37.2761 10.7239 37.5 11 37.5V36.5ZM18 37.5C18.2761 37.5 18.5 37.2761 18.5 37C18.5 36.7239 18.2761 36.5 18 36.5V37.5ZM25 36.5C24.7239 36.5 24.5 36.7239 24.5 37C24.5 37.2761 24.7239 37.5 25 37.5V36.5ZM28.8829 37.4239C29.138 37.3181 29.259 37.0256 29.1533 36.7705C29.0475 36.5155 28.7549 36.3944 28.4999 36.5002L28.8829 37.4239ZM28.5002 36.4999C28.3944 36.7549 28.5155 37.0475 28.7705 37.1533C29.0256 37.259 29.3181 37.138 29.4239 36.8829L28.5002 36.4999ZM29.4239 36.1171C29.3181 35.862 29.0256 35.741 28.7705 35.8467C28.5155 35.9525 28.3944 36.2451 28.5002 36.5001L29.4239 36.1171ZM28.4999 36.4998C28.7549 36.6056 29.0475 36.4845 29.1533 36.2295C29.259 35.9744 29.138 35.6819 28.8829 35.5761L28.4999 36.4998ZM25 35.5C24.7239 35.5 24.5 35.7239 24.5 36C24.5 36.2761 24.7239 36.5 25 36.5V35.5ZM18 36.5C18.2761 36.5 18.5 36.2761 18.5 36C18.5 35.7239 18.2761 35.5 18 35.5V36.5ZM11 35.5C10.7239 35.5 10.5 35.7239 10.5 36C10.5 36.2761 10.7239 36.5 11 36.5V35.5ZM4 36.5C4.27614 36.5 4.5 36.2761 4.5 36C4.5 35.7239 4.27614 35.5 4 35.5V36.5ZM0.5 35.5L0.500133 35.5002L0.117079 36.4239C0.23568 36.4731 0.36533 36.5 0.5 36.5V35.5ZM0.499803 35.4999L0.5 35.5H-0.5C-0.5 35.6347 -0.473105 35.7643 -0.423923 35.8829L0.499803 35.4999ZM0.5 35.5V31.125H-0.5V35.5H0.5ZM0.5 22.375V13.625H-0.5V22.375H0.5ZM0.5 4.875V0.5H-0.5V4.875H0.5ZM0.5 0.5L0.499803 0.500133L-0.423923 0.117079C-0.473105 0.23568 -0.5 0.36533 -0.5 0.5H0.5ZM0.500133 0.499803L0.5 0.5V-0.5C0.36533 -0.5 0.235681 -0.473105 0.117079 -0.423923L0.500133 0.499803ZM0.5 0.5L0.499867 0.499803L0.882921 -0.423923C0.76432 -0.473105 0.63467 -0.5 0.5 -0.5V0.5ZM0.500197 0.500133L0.5 0.5H1.5C1.5 0.36533 1.4731 0.235681 1.42392 0.117079L0.500197 0.500133ZM0.5 0.5V4.875H1.5V0.5H0.5ZM0.5 13.625V22.375H1.5V13.625H0.5ZM0.5 31.125V35.5H1.5V31.125H0.5ZM0.5 35.5L0.500197 35.4999L1.42392 35.8829C1.4731 35.7643 1.5 35.6347 1.5 35.5H0.5ZM0.499867 35.5002L0.5 35.5V36.5C0.63467 36.5 0.76432 36.4731 0.882921 36.4239L0.499867 35.5002ZM0.5 35.5C0.36533 35.5 0.23568 35.5269 0.117079 35.5761L0.500133 36.4998L0.5 36.5V35.5ZM-0.423923 36.1171C-0.473105 36.2357 -0.5 36.3653 -0.5 36.5H0.5L0.499803 36.5001L-0.423923 36.1171ZM-0.5 36.5C-0.5 36.6347 -0.473105 36.7643 -0.423923 36.8829L0.499803 36.4999L0.5 36.5H-0.5ZM0.117079 37.4239C0.23568 37.4731 0.36533 37.5 0.5 37.5V36.5L0.500133 36.5002L0.117079 37.4239ZM0.5 37.5H4V36.5H0.5V37.5ZM11 37.5H18V36.5H11V37.5ZM25 37.5H28.5V36.5H25V37.5ZM28.5 37.5C28.6347 37.5 28.7643 37.4731 28.8829 37.4239L28.4999 36.5002L28.5 36.5V37.5ZM29.4239 36.8829C29.4731 36.7643 29.5 36.6347 29.5 36.5H28.5L28.5002 36.4999L29.4239 36.8829ZM29.5 36.5C29.5 36.3653 29.4731 36.2357 29.4239 36.1171L28.5002 36.5001L28.5 36.5H29.5ZM28.8829 35.5761C28.7643 35.5269 28.6347 35.5 28.5 35.5V36.5L28.4999 36.4998L28.8829 35.5761ZM28.5 35.5H25V36.5H28.5V35.5ZM18 35.5H11V36.5H18V35.5ZM4 35.5H0.5V36.5H4V35.5ZM0.69166 35.0383C0.181501 34.8268 -0.403565 35.0688 -0.61512 35.579C-0.826675 36.0892 -0.584608 36.6742 -0.0744481 36.8858L0.69166 35.0383ZM-0.885786 36.0744C-0.674231 36.5846 -0.0891652 36.8267 0.420995 36.6151C0.931154 36.4036 1.17322 35.8185 0.961666 35.3083L-0.885786 36.0744ZM1 31.125C1 30.5727 0.552285 30.125 0 30.125C-0.552285 30.125 -1 30.5727 -1 31.125H1ZM-1 22.375C-1 22.9273 -0.552285 23.375 0 23.375C0.552285 23.375 1 22.9273 1 22.375H-1ZM1 13.625C1 13.0727 0.552285 12.625 0 12.625C-0.552285 12.625 -1 13.0727 -1 13.625H1ZM-1 4.875C-1 5.42728 -0.552285 5.875 0 5.875C0.552285 5.875 1 5.42728 1 4.875H-1ZM0.961666 0.69166C1.17322 0.1815 0.931154 -0.403565 0.420994 -0.61512C-0.0891656 -0.826675 -0.674231 -0.584608 -0.885786 -0.0744479L0.961666 0.69166ZM-0.0744477 -0.885786C-0.584607 -0.674231 -0.826675 -0.0891657 -0.61512 0.420994C-0.403565 0.931154 0.1815 1.17322 0.69166 0.961666L-0.0744477 -0.885786ZM0.30834 0.961666C0.8185 1.17322 1.40357 0.931154 1.61512 0.420994C1.82667 -0.0891655 1.58461 -0.674231 1.07445 -0.885786L0.30834 0.961666ZM1.88579 -0.0744477C1.67423 -0.584607 1.08917 -0.826675 0.579006 -0.61512C0.0688461 -0.403565 -0.173221 0.1815 0.0383337 0.69166L1.88579 -0.0744477ZM0 4.875C0 5.42728 0.447715 5.875 1 5.875C1.55228 5.875 2 5.42728 2 4.875H0ZM2 13.625C2 13.0727 1.55228 12.625 1 12.625C0.447715 12.625 0 13.0727 0 13.625H2ZM0 22.375C0 22.9273 0.447715 23.375 1 23.375C1.55228 23.375 2 22.9273 2 22.375H0ZM2 31.125C2 30.5727 1.55228 30.125 1 30.125C0.447715 30.125 0 30.5727 0 31.125H2ZM0.0383338 35.3083C-0.173221 35.8185 0.0688458 36.4036 0.579005 36.6151C1.08917 36.8267 1.67423 36.5846 1.88579 36.0744L0.0383338 35.3083ZM1.07445 36.8858C1.58461 36.6742 1.82667 36.0892 1.61512 35.579C1.40356 35.0688 0.8185 34.8268 0.30834 35.0383L1.07445 36.8858ZM-0.0744482 35.1142C-0.584608 35.3258 -0.826675 35.9108 -0.61512 36.421C-0.403565 36.9312 0.181501 37.1732 0.69166 36.9617L-0.0744482 35.1142ZM0.961666 36.6917C1.17322 36.1815 0.931154 35.5964 0.420995 35.3849C-0.0891649 35.1733 -0.67423 35.4154 -0.885785 35.9256L0.961666 36.6917ZM-0.885785 37.0744C-0.67423 37.5846 -0.089165 37.8267 0.420995 37.6151C0.931154 37.4036 1.17322 36.8185 0.961666 36.3083L-0.885785 37.0744ZM0.691661 36.0383C0.181501 35.8268 -0.403565 36.0688 -0.61512 36.579C-0.826675 37.0892 -0.584608 37.6742 -0.0744483 37.8858L0.691661 36.0383ZM4 38C4.55228 38 5 37.5523 5 37C5 36.4477 4.55228 36 4 36V38ZM11 36C10.4477 36 10 36.4477 10 37C10 37.5523 10.4477 38 11 38V36ZM18 38C18.5523 38 19 37.5523 19 37C19 36.4477 18.5523 36 18 36V38ZM25 36C24.4477 36 24 36.4477 24 37C24 37.5523 24.4477 38 25 38V36ZM29.0744 37.8858C29.5846 37.6742 29.8267 37.0892 29.6151 36.579C29.4036 36.0688 28.8185 35.8268 28.3083 36.0383L29.0744 37.8858ZM28.0383 36.3083C27.8268 36.8185 28.0688 37.4036 28.579 37.6151C29.0892 37.8267 29.6742 37.5846 29.8858 37.0744L28.0383 36.3083ZM29.8858 35.9256C29.6742 35.4154 29.0892 35.1733 28.579 35.3849C28.0688 35.5964 27.8268 36.1815 28.0383 36.6917L29.8858 35.9256ZM28.3083 36.9617C28.8185 37.1732 29.4036 36.9312 29.6151 36.421C29.8267 35.9108 29.5846 35.3258 29.0744 35.1142L28.3083 36.9617ZM25 35C24.4477 35 24 35.4477 24 36C24 36.5523 24.4477 37 25 37V35ZM18 37C18.5523 37 19 36.5523 19 36C19 35.4477 18.5523 35 18 35V37ZM11 35C10.4477 35 10 35.4477 10 36C10 36.5523 10.4477 37 11 37V35ZM4 37C4.55228 37 5 36.5523 5 36C5 35.4477 4.55228 35 4 35V37ZM0.5 35C0.565953 35 0.631319 35.0133 0.69166 35.0383L-0.0744481 36.8858C0.103801 36.9597 0.298455 37 0.5 37V35ZM0.961666 35.3083C0.986689 35.3687 1 35.434 1 35.5H-1C-1 35.7015 -0.959702 35.8962 -0.885786 36.0744L0.961666 35.3083ZM1 35.5V31.125H-1V35.5H1ZM1 22.375V13.625H-1V22.375H1ZM1 4.875V0.5H-1V4.875H1ZM1 0.5C1 0.565953 0.986689 0.631319 0.961666 0.69166L-0.885786 -0.0744479C-0.959703 0.103801 -1 0.298456 -1 0.5H1ZM0.69166 0.961666C0.631319 0.986689 0.565953 1 0.5 1V-1C0.298456 -1 0.103801 -0.959703 -0.0744477 -0.885786L0.69166 0.961666ZM0.5 1C0.434047 1 0.368681 0.986689 0.30834 0.961666L1.07445 -0.885786C0.896199 -0.959703 0.701544 -1 0.5 -1V1ZM0.0383337 0.69166C0.0133113 0.631319 0 0.565953 0 0.5H2C2 0.298456 1.9597 0.103801 1.88579 -0.0744477L0.0383337 0.69166ZM0 0.5V4.875H2V0.5H0ZM0 13.625V22.375H2V13.625H0ZM0 31.125V35.5H2V31.125H0ZM0 35.5C0 35.434 0.0133113 35.3687 0.0383338 35.3083L1.88579 36.0744C1.9597 35.8962 2 35.7015 2 35.5H0ZM0.30834 35.0383C0.368681 35.0133 0.434047 35 0.5 35V37C0.701545 37 0.896199 36.9597 1.07445 36.8858L0.30834 35.0383ZM0.5 35C0.298455 35 0.103801 35.0403 -0.0744482 35.1142L0.69166 36.9617C0.631319 36.9867 0.565953 37 0.5 37V35ZM-0.885785 35.9256C-0.959702 36.1038 -1 36.2985 -1 36.5H1C1 36.566 0.986689 36.6313 0.961666 36.6917L-0.885785 35.9256ZM-1 36.5C-1 36.7015 -0.959702 36.8962 -0.885785 37.0744L0.961666 36.3083C0.986689 36.3687 1 36.434 1 36.5H-1ZM-0.0744483 37.8858C0.103801 37.9597 0.298455 38 0.5 38V36C0.565953 36 0.631319 36.0133 0.691661 36.0383L-0.0744483 37.8858ZM0.5 38H4V36H0.5V38ZM11 38H18V36H11V38ZM25 38H28.5V36H25V38ZM28.5 38C28.7015 38 28.8962 37.9597 29.0744 37.8858L28.3083 36.0383C28.3687 36.0133 28.434 36 28.5 36V38ZM29.8858 37.0744C29.9597 36.8962 30 36.7015 30 36.5H28C28 36.434 28.0133 36.3687 28.0383 36.3083L29.8858 37.0744ZM30 36.5C30 36.2985 29.9597 36.1038 29.8858 35.9256L28.0383 36.6917C28.0133 36.6313 28 36.566 28 36.5H30ZM29.0744 35.1142C28.8962 35.0403 28.7015 35 28.5 35V37C28.434 37 28.3687 36.9867 28.3083 36.9617L29.0744 35.1142ZM28.5 35H25V37H28.5V35ZM18 35H11V37H18V35ZM4 35H0.5V37H4V35Z" fill="#8A94A6" mask="url(#path-1-inside-1_2195_26261)"/>
</svg>
