<svg width="25" height="25" viewBox="0 0 25 25" fill="none" xmlns="http://www.w3.org/2000/svg">
<path opacity="0.4" d="M22.2109 12.8928C22.2109 7.36997 17.7338 2.89282 12.2109 2.89282C6.68809 2.89282 2.21094 7.36997 2.21094 12.8928C2.21094 18.4157 6.68809 22.8928 12.2109 22.8928C17.7338 22.8928 22.2109 18.4157 22.2109 12.8928Z" fill="#CACACA"/>
<path d="M15.2209 12.8929C15.2209 13.0829 15.1509 13.2729 15.0009 13.4229L11.4709 16.9529C11.1809 17.2429 10.7009 17.2429 10.4109 16.9529C10.1209 16.6629 10.1209 16.1829 10.4109 15.8929L13.4109 12.8929L10.4109 9.89291C10.1209 9.60291 10.1209 9.12291 10.4109 8.83291C10.7009 8.54291 11.1809 8.54291 11.4709 8.83291L15.0009 12.3629C15.1509 12.5129 15.2209 12.7029 15.2209 12.8929Z" fill="#292D32"/>
</svg>
