<svg width="24" height="24" viewBox="0 0 24 24" fill="none" xmlns="http://www.w3.org/2000/svg">
<path d="M15.6094 18.4907V8.33071C15.6094 7.93071 15.4894 7.54071 15.2694 7.21071L12.5394 3.15071C12.1094 2.50071 11.0394 2.04071 10.1294 2.38071C9.14938 2.71071 8.49938 3.81071 8.70938 4.79071L9.22937 8.06071C9.26937 8.36071 9.18938 8.63071 9.01938 8.84071C8.84938 9.03071 8.59938 9.15071 8.32938 9.15071H4.21937C3.42937 9.15071 2.74938 9.47071 2.34938 10.0307C1.96938 10.5707 1.89937 11.2707 2.14937 11.9807L4.60938 19.4707C4.91938 20.7107 6.26938 21.7207 7.60938 21.7207H11.5094C12.1794 21.7207 13.1194 21.4907 13.5494 21.0607L14.8294 20.0707C15.3194 19.7007 15.6094 19.1107 15.6094 18.4907Z" fill="#2FBF90"/>
<path d="M18.79 6.38086H19.82C21.37 6.38086 22 6.98086 22 8.46086V18.5209C22 20.0009 21.37 20.6009 19.82 20.6009H18.79C17.24 20.6009 16.61 20.0009 16.61 18.5209V8.46086C16.61 6.98086 17.24 6.38086 18.79 6.38086Z" fill="#2FBF90"/>
</svg>
