<svg width="22" height="22" viewBox="0 0 22 22" fill="none" xmlns="http://www.w3.org/2000/svg">
<path d="M14.6667 3.66675H7.33341C5.30837 3.66675 3.66675 5.30837 3.66675 7.33341V14.6667C3.66675 16.6918 5.30837 18.3334 7.33341 18.3334H14.6667C16.6918 18.3334 18.3334 16.6918 18.3334 14.6667V7.33341C18.3334 5.30837 16.6918 3.66675 14.6667 3.66675Z" stroke="#0060D0" stroke-width="1.375" stroke-linecap="round" stroke-linejoin="round"/>
<path d="M11 13.75C12.5188 13.75 13.75 12.5188 13.75 11C13.75 9.48122 12.5188 8.25 11 8.25C9.48122 8.25 8.25 9.48122 8.25 11C8.25 12.5188 9.48122 13.75 11 13.75Z" stroke="#0060D0" stroke-width="1.375" stroke-linecap="round" stroke-linejoin="round"/>
<path d="M15.125 6.875V6.876" stroke="#0060D0" stroke-width="1.375" stroke-linecap="round" stroke-linejoin="round"/>
</svg>
