<svg width="20" height="17" viewBox="0 0 20 17" fill="none" xmlns="http://www.w3.org/2000/svg">
<path d="M19.1666 1.67585C18.2499 2.12501 17.3516 2.30743 16.4166 2.58335C15.389 1.42376 13.8655 1.3596 12.4016 1.90776C10.9377 2.45593 9.97883 3.7961 9.99992 5.33334V6.25001C7.02533 6.32609 4.37617 4.97126 2.66658 2.58335C2.66658 2.58335 -1.16691 9.39693 6.33325 12.6667C4.61725 13.8098 2.90583 14.5807 0.833252 14.5C3.86558 16.1528 7.17017 16.7211 10.0311 15.8906C13.3128 14.9373 16.0096 12.4778 17.0445 8.79376C17.3532 7.67329 17.5065 6.51572 17.5001 5.35351C17.4982 5.12526 18.8842 2.81251 19.1666 1.67493V1.67585Z" stroke="#8A94A6" stroke-width="1.375" stroke-linecap="round" stroke-linejoin="round"/>
</svg>
