<svg width="22" height="22" viewBox="0 0 22 22" fill="none" xmlns="http://www.w3.org/2000/svg">
<path d="M16.5 3.66675H5.49996C4.48744 3.66675 3.66663 4.48756 3.66663 5.50008V16.5001C3.66663 17.5126 4.48744 18.3334 5.49996 18.3334H16.5C17.5125 18.3334 18.3333 17.5126 18.3333 16.5001V5.50008C18.3333 4.48756 17.5125 3.66675 16.5 3.66675Z" stroke="#8A94A6" stroke-width="1.375" stroke-linecap="round" stroke-linejoin="round"/>
<path d="M7.33325 10.0833V14.6666" stroke="#8A94A6" stroke-width="1.375" stroke-linecap="round" stroke-linejoin="round"/>
<path d="M7.33325 7.33325V7.34284" stroke="#8A94A6" stroke-width="1.375" stroke-linecap="round" stroke-linejoin="round"/>
<path d="M11 14.6666V10.0833" stroke="#8A94A6" stroke-width="1.375" stroke-linecap="round" stroke-linejoin="round"/>
<path d="M14.6667 14.6666V11.9166C14.6667 11.4304 14.4735 10.964 14.1297 10.6202C13.7859 10.2764 13.3196 10.0833 12.8333 10.0833C12.3471 10.0833 11.8808 10.2764 11.537 10.6202C11.1932 10.964 11 11.4304 11 11.9166" stroke="#8A94A6" stroke-width="1.375" stroke-linecap="round" stroke-linejoin="round"/>
</svg>
