<svg width="32" height="32" viewBox="0 0 32 32" fill="none" xmlns="http://www.w3.org/2000/svg">
<path d="M7.99998 28C9.47274 28 10.6666 26.8061 10.6666 25.3334C10.6666 23.8606 9.47274 22.6667 7.99998 22.6667C6.52722 22.6667 5.33331 23.8606 5.33331 25.3334C5.33331 26.8061 6.52722 28 7.99998 28Z" stroke="#2FBF90" stroke-width="2.75" stroke-linecap="round" stroke-linejoin="round"/>
<path d="M22.6667 28C24.1394 28 25.3333 26.8061 25.3333 25.3334C25.3333 23.8606 24.1394 22.6667 22.6667 22.6667C21.1939 22.6667 20 23.8606 20 25.3334C20 26.8061 21.1939 28 22.6667 28Z" stroke="#2FBF90" stroke-width="2.75" stroke-linecap="round" stroke-linejoin="round"/>
<path d="M22.6666 22.6667H7.99998V4H5.33331" stroke="#2FBF90" stroke-width="2.75" stroke-linecap="round" stroke-linejoin="round"/>
<path d="M26.6667 8L25.3333 17.3333H8" stroke="#2FBF90" stroke-width="2.75" stroke-linecap="round" stroke-linejoin="round"/>
<path d="M13.3333 13.3333L21.3333 5.33331" stroke="#2FBF90" stroke-width="2.75" stroke-linecap="round" stroke-linejoin="round"/>
<path d="M14 6.66665C14.3682 6.66665 14.6666 6.36817 14.6666 5.99998C14.6666 5.63179 14.3682 5.33331 14 5.33331C13.6318 5.33331 13.3333 5.63179 13.3333 5.99998C13.3333 6.36817 13.6318 6.66665 14 6.66665Z" stroke="#2FBF90" stroke-width="2.75" stroke-linecap="round" stroke-linejoin="round"/>
<path d="M20.6667 13.3333C21.0349 13.3333 21.3333 13.0349 21.3333 12.6667C21.3333 12.2985 21.0349 12 20.6667 12C20.2985 12 20 12.2985 20 12.6667C20 13.0349 20.2985 13.3333 20.6667 13.3333Z" stroke="#2FBF90" stroke-width="2.75" stroke-linecap="round" stroke-linejoin="round"/>
</svg>
