<svg width="32" height="32" viewBox="0 0 32 32" fill="none" xmlns="http://www.w3.org/2000/svg">
<path d="M25.3333 5.33331H6.66667C5.19391 5.33331 4 6.52722 4 7.99998C4 9.47274 5.19391 10.6666 6.66667 10.6666H25.3333C26.8061 10.6666 28 9.47274 28 7.99998C28 6.52722 26.8061 5.33331 25.3333 5.33331Z" stroke="#2FBF90" stroke-width="2.75" stroke-linecap="round" stroke-linejoin="round"/>
<path d="M6.66669 10.6667V24C6.66669 24.7073 6.94764 25.3855 7.44774 25.8856C7.94783 26.3857 8.62611 26.6667 9.33335 26.6667H22.6667C23.3739 26.6667 24.0522 26.3857 24.5523 25.8856C25.0524 25.3855 25.3334 24.7073 25.3334 24V10.6667" stroke="#2FBF90" stroke-width="2.75" stroke-linecap="round" stroke-linejoin="round"/>
<path d="M13.3333 16H18.6666" stroke="#2FBF90" stroke-width="2.75" stroke-linecap="round" stroke-linejoin="round"/>
</svg>
