<svg width="25" height="25" viewBox="0 0 25 25" fill="none" xmlns="http://www.w3.org/2000/svg">
<path d="M8.88965 18.99V8.83004C8.88965 8.43004 9.00965 8.04004 9.22965 7.71004L11.9596 3.65004C12.3896 3.00004 13.4596 2.54004 14.3696 2.88004C15.3496 3.21004 15.9996 4.31004 15.7896 5.29004L15.2696 8.56004C15.2296 8.86004 15.3096 9.13004 15.4796 9.34004C15.6496 9.53004 15.8996 9.65004 16.1696 9.65004H20.2796C21.0697 9.65004 21.7496 9.97004 22.1496 10.53C22.5296 11.07 22.5997 11.77 22.3497 12.48L19.8896 19.97C19.5796 21.21 18.2296 22.22 16.8896 22.22H12.9896C12.3196 22.22 11.3796 21.99 10.9496 21.56L9.66965 20.57C9.17965 20.2 8.88965 19.61 8.88965 18.99Z" fill="#05EE00"/>
<path d="M5.71 6.88H4.68C3.13 6.88 2.5 7.48 2.5 8.96001V19.02C2.5 20.5 3.13 21.1 4.68 21.1H5.71C7.26 21.1 7.89 20.5 7.89 19.02V8.96001C7.89 7.48 7.26 6.88 5.71 6.88Z" fill="#05EE00"/>
</svg>
