<svg width="25" height="25" viewBox="0 0 25 25" fill="none" xmlns="http://www.w3.org/2000/svg">
<path d="M8.89062 6.00929V16.1693C8.89062 16.5693 9.01062 16.9593 9.23062 17.2893L11.9606 21.3493C12.3906 21.9993 13.4606 22.4593 14.3706 22.1193C15.3506 21.7893 16.0006 20.6893 15.7906 19.7093L15.2706 16.4393C15.2306 16.1393 15.3106 15.8693 15.4806 15.6593C15.6506 15.4693 15.9006 15.3493 16.1706 15.3493H20.2806C21.0706 15.3493 21.7506 15.0293 22.1506 14.4693C22.5306 13.9293 22.6006 13.2293 22.3506 12.5193L19.8906 5.02929C19.5806 3.78929 18.2306 2.77929 16.8906 2.77929H12.9906C12.3206 2.77929 11.3806 3.00929 10.9506 3.43929L9.67062 4.42929C9.18062 4.79929 8.89062 5.38929 8.89062 6.00929Z" fill="#BF2F2F"/>
<path d="M5.71 18.1191H4.68C3.13 18.1191 2.5 17.5191 2.5 16.0391V5.97914C2.5 4.49914 3.13 3.89914 4.68 3.89914H5.71C7.26 3.89914 7.89 4.49914 7.89 5.97914V16.0391C7.89 17.5191 7.26 18.1191 5.71 18.1191Z" fill="#BF2F2F"/>
</svg>
