<svg width="32" height="32" viewBox="0 0 32 32" fill="none" xmlns="http://www.w3.org/2000/svg">
<path d="M20.5186 6.94663L22.3986 10.7066C22.6519 11.2266 23.3319 11.7199 23.9052 11.8266L27.3053 12.3866C29.4786 12.7466 29.9853 14.3199 28.4253 15.8933L25.7719 18.5466C25.3319 18.9866 25.0786 19.8533 25.2253 20.48L25.9852 23.76C26.5852 26.3466 25.1986 27.36 22.9186 26L19.7319 24.1066C19.1586 23.76 18.1986 23.76 17.6253 24.1066L14.4386 26C12.1586 27.3466 10.7719 26.3466 11.3719 23.76L12.1319 20.48C12.2786 19.8666 12.0253 19 11.5853 18.5466L8.93194 15.8933C7.37194 14.3333 7.8786 12.7599 10.0519 12.3866L13.4519 11.8266C14.0253 11.7333 14.7053 11.2266 14.9586 10.7066L16.8386 6.94663C17.8386 4.90663 19.4919 4.90663 20.5186 6.94663Z" stroke="#329FC0" stroke-width="1.5" stroke-linecap="round" stroke-linejoin="round"/>
<path d="M10.6666 6.66663H2.66663" stroke="#329FC0" stroke-width="1.5" stroke-linecap="round" stroke-linejoin="round"/>
<path d="M6.66663 25.3334H2.66663" stroke="#329FC0" stroke-width="1.5" stroke-linecap="round" stroke-linejoin="round"/>
<path d="M3.99996 16H2.66663" stroke="#329FC0" stroke-width="1.5" stroke-linecap="round" stroke-linejoin="round"/>
</svg>
