<svg width="32" height="33" viewBox="0 0 32 33" fill="none" xmlns="http://www.w3.org/2000/svg">
<path d="M29.3333 8.77665V15.5766C29.3333 17.27 28.7733 18.6966 27.7733 19.6833C26.7866 20.6833 25.36 21.2433 23.6666 21.2433V23.6566C23.6666 24.5633 22.6533 25.11 21.9066 24.6033L20.6133 23.75C20.7333 23.3366 20.7866 22.8833 20.7866 22.4033V16.9767C20.7866 14.2567 18.9733 12.4433 16.2533 12.4433H7.19995C7.01328 12.4433 6.83996 12.4567 6.66663 12.47V8.77665C6.66663 5.37665 8.93329 3.10999 12.3333 3.10999H23.6666C27.0666 3.10999 29.3333 5.37665 29.3333 8.77665Z" stroke="#939393" stroke-width="1.5" stroke-miterlimit="10" stroke-linecap="round" stroke-linejoin="round"/>
<path d="M20.7866 16.9767V22.4033C20.7866 22.8833 20.7333 23.3367 20.6133 23.75C20.12 25.71 18.4933 26.9367 16.2533 26.9367H12.6266L8.59996 29.6167C7.99996 30.03 7.19995 29.59 7.19995 28.87V26.9367C5.83995 26.9367 4.70663 26.4834 3.91996 25.6967C3.11996 24.8967 2.66663 23.7633 2.66663 22.4033V16.9767C2.66663 14.4434 4.23996 12.6967 6.66663 12.4701C6.83996 12.4567 7.01328 12.4434 7.19995 12.4434H16.2533C18.9733 12.4434 20.7866 14.2567 20.7866 16.9767Z" stroke="#939393" stroke-width="1.5" stroke-miterlimit="10" stroke-linecap="round" stroke-linejoin="round"/>
</svg>
