<svg width="32" height="33" viewBox="0 0 32 33" fill="none" xmlns="http://www.w3.org/2000/svg">
<path d="M20.5186 7.27524L22.3986 11.0352C22.6519 11.5552 23.3319 12.0486 23.9052 12.1552L27.3053 12.7152C29.4786 13.0752 29.9853 14.6486 28.4253 16.2219L25.7719 18.8752C25.3319 19.3152 25.0786 20.1819 25.2253 20.8086L25.9852 24.0886C26.5852 26.6752 25.1986 27.6886 22.9186 26.3286L19.7319 24.4352C19.1586 24.0886 18.1986 24.0886 17.6253 24.4352L14.4386 26.3286C12.1586 27.6752 10.7719 26.6752 11.3719 24.0886L12.1319 20.8086C12.2786 20.1952 12.0253 19.3286 11.5853 18.8752L8.93194 16.2219C7.37194 14.6619 7.8786 13.0886 10.0519 12.7152L13.4519 12.1552C14.0253 12.0619 14.7053 11.5552 14.9586 11.0352L16.8386 7.27524C17.8386 5.23524 19.4919 5.23524 20.5186 7.27524Z" stroke="#C82B5E" stroke-width="1.5" stroke-linecap="round" stroke-linejoin="round"/>
<path d="M10.6666 6.99524H2.66663" stroke="#C82B5E" stroke-width="1.5" stroke-linecap="round" stroke-linejoin="round"/>
<path d="M6.66663 25.662H2.66663" stroke="#C82B5E" stroke-width="1.5" stroke-linecap="round" stroke-linejoin="round"/>
<path d="M3.99996 16.3286H2.66663" stroke="#C82B5E" stroke-width="1.5" stroke-linecap="round" stroke-linejoin="round"/>
</svg>
