<svg width="32" height="33" viewBox="0 0 32 33" fill="none" xmlns="http://www.w3.org/2000/svg">
<path d="M17.3464 4.33622L25.213 7.82955C27.4797 8.82955 27.4797 10.4829 25.213 11.4829L17.3464 14.9762C16.453 15.3762 14.9864 15.3762 14.093 14.9762L6.22637 11.4829C3.9597 10.4829 3.9597 8.82955 6.22637 7.82955L14.093 4.33622C14.9864 3.93622 16.453 3.93622 17.3464 4.33622Z" stroke="#FF9D00" stroke-width="1.5" stroke-linecap="round" stroke-linejoin="round"/>
<path d="M4 15.1098C4 16.2298 4.84 17.5231 5.86667 17.9765L14.92 22.0031C15.6133 22.3098 16.4 22.3098 17.08 22.0031L26.1333 17.9765C27.16 17.5231 28 16.2298 28 15.1098" stroke="#FF9D00" stroke-width="1.5" stroke-linecap="round" stroke-linejoin="round"/>
<path d="M4 21.7764C4 23.0164 4.73333 24.1364 5.86667 24.6431L14.92 28.6698C15.6133 28.9764 16.4 28.9764 17.08 28.6698L26.1333 24.6431C27.2667 24.1364 28 23.0164 28 21.7764" stroke="#FF9D00" stroke-width="1.5" stroke-linecap="round" stroke-linejoin="round"/>
</svg>
