<svg width="10" height="4" viewBox="0 0 10 4" fill="none" xmlns="http://www.w3.org/2000/svg">
<path d="M1.10352 3.08203C1.71875 3.08203 2.2041 2.58984 2.2041 1.98145C2.2041 1.36621 1.71875 0.880859 1.10352 0.880859C0.488281 0.880859 0.00292969 1.36621 0.00292969 1.98145C0.00292969 2.58984 0.488281 3.08203 1.10352 3.08203ZM5 3.08203C5.61523 3.08203 6.10059 2.58984 6.10059 1.98145C6.10059 1.36621 5.61523 0.880859 5 0.880859C4.38477 0.880859 3.89941 1.36621 3.89941 1.98145C3.89941 2.58984 4.38477 3.08203 5 3.08203ZM8.89648 3.08203C9.51172 3.08203 9.99707 2.58984 9.99707 1.98145C9.99707 1.36621 9.51172 0.880859 8.89648 0.880859C8.28125 0.880859 7.7959 1.36621 7.7959 1.98145C7.7959 2.58984 8.28125 3.08203 8.89648 3.08203Z" fill="#212B36"/>
</svg>
