<svg width="20" height="20" viewBox="0 0 20 20" fill="none" xmlns="http://www.w3.org/2000/svg">
<path d="M14.19 0H5.81C2.17 0 0 2.17 0 5.81V14.18C0 17.83 2.17 20 5.81 20H14.18C17.82 20 19.99 17.83 19.99 14.19V5.81C20 2.17 17.83 0 14.19 0ZM10.52 13.75L9.26 15.01C8.62 15.66 7.57 15.66 6.92 15.01L4.99 13.08C4.34 12.43 4.35 11.39 4.99 10.74L6.26 9.48C6.46 9.29 6.77 9.29 6.97 9.48L10.53 13.04C10.72 13.24 10.72 13.56 10.52 13.75ZM15.01 9.26L11.93 12.34C11.73 12.54 11.42 12.54 11.22 12.34L7.66 8.78C7.46 8.58 7.46 8.27 7.66 8.07L10.74 4.99C11.38 4.34 12.43 4.34 13.08 4.99L15.01 6.92C15.66 7.57 15.66 8.62 15.01 9.26Z" fill="#CDCDCD"/>
</svg>
