<svg width="24" height="24" viewBox="0 0 24 24" fill="none" xmlns="http://www.w3.org/2000/svg">
<path d="M15.4101 18.5919C15.0101 18.5919 14.6801 18.2619 14.6801 17.8619C14.6801 17.4619 15.0101 17.1319 15.4101 17.1319C18.2301 17.1319 20.5301 14.8319 20.5301 12.0119C20.5301 9.19188 18.2301 6.89187 15.4101 6.89187C12.5901 6.89187 10.2901 9.19188 10.2901 12.0119C10.2901 12.4119 9.96008 12.7419 9.56008 12.7419C9.16008 12.7419 8.83008 12.4119 8.83008 12.0119C8.83008 8.38188 11.7801 5.42188 15.4201 5.42188C19.0601 5.42188 22.0001 8.37187 22.0001 12.0019C22.0001 15.6319 19.0501 18.5919 15.4101 18.5919Z" fill="#CDCDCD"/>
<path d="M8.59 5.41016C8.99 5.41016 9.32 5.74016 9.32 6.14016C9.32 6.54016 8.99 6.87016 8.59 6.87016C5.77 6.87016 3.47 9.17016 3.47 11.9902C3.47 14.8102 5.77 17.1102 8.59 17.1102C11.41 17.1102 13.71 14.8102 13.71 11.9902C13.71 11.5902 14.04 11.2602 14.44 11.2602C14.84 11.2602 15.17 11.5902 15.17 11.9902C15.17 15.6202 12.22 18.5802 8.58 18.5802C4.94 18.5802 2 15.6302 2 12.0002C2 8.37016 4.95 5.41016 8.59 5.41016Z" fill="#CDCDCD"/>
</svg>
