<svg width="16" height="16" viewBox="0 0 16 16" fill="none" xmlns="http://www.w3.org/2000/svg">
<path d="M12.9992 4.99927L12.0059 5.9926L10.0059 3.9926L10.9992 2.99927C11.2792 2.71927 11.6392 2.58594 11.9992 2.58594C12.3592 2.58594 12.7192 2.71927 12.9992 2.99927C13.5525 3.5526 13.5525 4.44594 12.9992 4.99927Z" fill="#292D32"/>
<path d="M11.5396 6.46484L4.33297 13.6648C3.77964 14.2182 2.8863 14.2182 2.33297 13.6648C1.77964 13.1115 1.77964 12.2182 2.33297 11.6648L9.53964 4.46484L11.5396 6.46484Z" fill="#292D32"/>
<path d="M6.63302 2.33237L6.90635 1.4057C6.93302 1.31903 6.90635 1.2257 6.84635 1.15903C6.78635 1.09237 6.67969 1.0657 6.59302 1.09237L5.66635 1.3657L4.73969 1.09237C4.65302 1.0657 4.55969 1.09237 4.49302 1.15237C4.42635 1.21903 4.40635 1.31237 4.43302 1.39903L4.69969 2.33237L4.42635 3.25903C4.39969 3.3457 4.42635 3.43903 4.48635 3.5057C4.55302 3.57237 4.64635 3.59237 4.73302 3.5657L5.66635 3.29903L6.59302 3.57237C6.61969 3.57903 6.63969 3.5857 6.66635 3.5857C6.73302 3.5857 6.79302 3.55903 6.84635 3.51237C6.91302 3.4457 6.93302 3.35237 6.90635 3.2657L6.63302 2.33237Z" fill="#292D32"/>
<path d="M3.967 6.33237L4.24034 5.4057C4.267 5.31903 4.24034 5.2257 4.18034 5.15903C4.11367 5.09237 4.02034 5.07237 3.93367 5.09903L3.00034 5.3657L2.07367 5.09237C1.987 5.0657 1.89367 5.09237 1.827 5.15237C1.76034 5.21903 1.74034 5.31237 1.767 5.39903L2.03367 6.33237L1.76034 7.25903C1.73367 7.3457 1.76034 7.43903 1.82034 7.5057C1.887 7.57237 1.98034 7.59237 2.067 7.5657L2.99367 7.29237L3.92034 7.5657C3.94034 7.57237 3.967 7.57237 3.99367 7.57237C4.06034 7.57237 4.12034 7.5457 4.17367 7.49903C4.24034 7.43237 4.26034 7.33903 4.23367 7.25237L3.967 6.33237Z" fill="#292D32"/>
<path d="M13.9665 9.66664L14.2398 8.73997C14.2665 8.6533 14.2398 8.55997 14.1798 8.4933C14.1131 8.42664 14.0198 8.40664 13.9331 8.4333L13.0065 8.70664L12.0798 8.4333C11.9931 8.40664 11.8998 8.4333 11.8331 8.4933C11.7665 8.55997 11.7465 8.6533 11.7731 8.73997L12.0465 9.66664L11.7731 10.5933C11.7465 10.68 11.7731 10.7733 11.8331 10.84C11.8998 10.9066 11.9931 10.9266 12.0798 10.9L13.0065 10.6266L13.9331 10.9C13.9531 10.9066 13.9798 10.9066 14.0065 10.9066C14.0731 10.9066 14.1331 10.88 14.1865 10.8333C14.2531 10.7666 14.2731 10.6733 14.2465 10.5866L13.9665 9.66664Z" fill="#292D32"/>
</svg>
