<svg width="16" height="16" viewBox="0 0 16 16" fill="none" xmlns="http://www.w3.org/2000/svg">
<path d="M10.794 1.33203H5.20732C2.78065 1.33203 1.33398 2.7787 1.33398 5.20536V10.7854C1.33398 13.2187 2.78065 14.6654 5.20732 14.6654H10.7873C13.214 14.6654 14.6607 13.2187 14.6607 10.792V5.20536C14.6673 2.7787 13.2207 1.33203 10.794 1.33203ZM9.19398 9.9987C9.38732 10.192 9.38732 10.512 9.19398 10.7054C9.09398 10.8054 8.96732 10.852 8.84065 10.852C8.71398 10.852 8.58732 10.8054 8.48732 10.7054L6.13398 8.35203C5.94065 8.1587 5.94065 7.8387 6.13398 7.64536L8.48732 5.29203C8.68065 5.0987 9.00065 5.0987 9.19398 5.29203C9.38732 5.48536 9.38732 5.80536 9.19398 5.9987L7.19398 7.9987L9.19398 9.9987Z" fill="#CDCDCD"/>
</svg>
