<svg width="16" height="16" viewBox="0 0 16 16" fill="none" xmlns="http://www.w3.org/2000/svg">
<path d="M10.794 1.33203H5.20732C2.78065 1.33203 1.33398 2.7787 1.33398 5.20536V10.7854C1.33398 13.2187 2.78065 14.6654 5.20732 14.6654H10.7873C13.214 14.6654 14.6607 13.2187 14.6607 10.792V5.20536C14.6673 2.7787 13.2207 1.33203 10.794 1.33203ZM9.86065 8.35203L7.50732 10.7054C7.40732 10.8054 7.28065 10.852 7.15398 10.852C7.02732 10.852 6.90065 10.8054 6.80065 10.7054C6.60732 10.512 6.60732 10.192 6.80065 9.9987L8.80065 7.9987L6.80065 5.9987C6.60732 5.80536 6.60732 5.48536 6.80065 5.29203C6.99398 5.0987 7.31398 5.0987 7.50732 5.29203L9.86065 7.64536C10.0607 7.8387 10.0607 8.1587 9.86065 8.35203Z" fill="#CDCDCD"/>
</svg>
