<svg width="12" height="11" viewBox="0 0 12 11" fill="none" xmlns="http://www.w3.org/2000/svg">
<path d="M6.59241 1.58651L7.38784 3.17738C7.49631 3.39883 7.78556 3.61125 8.02961 3.65192L9.47134 3.89146C10.3933 4.04512 10.6103 4.71401 9.94589 5.37386L8.82505 6.4947C8.63523 6.68452 8.53128 7.0506 8.59003 7.31273L8.91092 8.70022C9.16401 9.79846 8.58099 10.2233 7.6093 9.64932L6.25797 8.84936C6.01391 8.70474 5.61167 8.70474 5.3631 8.84936L4.01177 9.64932C3.04459 10.2233 2.45706 9.79394 2.71015 8.70022L3.03103 7.31273C3.08979 7.0506 2.98584 6.68452 2.79602 6.4947L1.67518 5.37386C1.01533 4.71401 1.22775 4.04512 2.14973 3.89146L3.59145 3.65192C3.83099 3.61125 4.12024 3.39883 4.2287 3.17738L5.02414 1.58651C5.45801 0.72328 6.16305 0.72328 6.59241 1.58651Z" fill="#329FC0"/>
</svg>
