<svg width="24" height="25" viewBox="0 0 24 25" fill="none" xmlns="http://www.w3.org/2000/svg">
<path d="M17 18.8732H13L8.54999 21.8331C7.88999 22.2731 7 21.8032 7 21.0032V18.8732C4 18.8732 2 16.8732 2 13.8732V7.87311C2 4.87311 4 2.87311 7 2.87311H17C20 2.87311 22 4.87311 22 7.87311V13.8732C22 16.8732 20 18.8732 17 18.8732Z" stroke="#FF9D00" stroke-width="1.5" stroke-miterlimit="10" stroke-linecap="round" stroke-linejoin="round"/>
<path d="M12 11.8031V11.5931C12 10.9131 12.42 10.5531 12.84 10.2631C13.25 9.98312 13.66 9.62313 13.66 8.96313C13.66 8.04313 12.92 7.3031 12 7.3031C11.08 7.3031 10.34 8.04313 10.34 8.96313" stroke="#FF9D00" stroke-width="1.5" stroke-linecap="round" stroke-linejoin="round"/>
<path d="M11.9955 14.1931H12.0045" stroke="#FF9D00" stroke-width="1.5" stroke-linecap="round" stroke-linejoin="round"/>
</svg>
