<svg width="11" height="11" viewBox="0 0 11 11" fill="none" xmlns="http://www.w3.org/2000/svg">
<path d="M6.20532 1.58651L7.00076 3.17738C7.10923 3.39883 7.39848 3.61125 7.64253 3.65192L9.08425 3.89146C10.0062 4.04512 10.2232 4.71401 9.5588 5.37386L8.43796 6.4947C8.24814 6.68452 8.14419 7.0506 8.20295 7.31273L8.52383 8.70022C8.77693 9.79846 8.19391 10.2233 7.22221 9.64932L5.87088 8.84936C5.62683 8.70474 5.22459 8.70474 4.97602 8.84936L3.62468 9.64932C2.65751 10.2233 2.06997 9.79394 2.32306 8.70022L2.64395 7.31273C2.7027 7.0506 2.59875 6.68452 2.40893 6.4947L1.28809 5.37386C0.628246 4.71401 0.840663 4.04512 1.76264 3.89146L3.20437 3.65192C3.4439 3.61125 3.73315 3.39883 3.84162 3.17738L4.63705 1.58651C5.07093 0.72328 5.77597 0.72328 6.20532 1.58651Z" fill="white"/>
</svg>
