<svg width="18" height="19" viewBox="0 0 18 19" fill="none" xmlns="http://www.w3.org/2000/svg">
<path d="M9.11998 7.6525C9.04498 7.645 8.95498 7.645 8.87248 7.6525C7.08748 7.5925 5.66998 6.13 5.66998 4.33C5.66998 2.4925 7.15498 1 8.99998 1C10.8375 1 12.33 2.4925 12.33 4.33C12.3225 6.13 10.905 7.5925 9.11998 7.6525Z" stroke="white" stroke-width="1.125" stroke-linecap="round" stroke-linejoin="round"/>
<path d="M5.36998 10.42C3.55498 11.635 3.55498 13.615 5.36998 14.8225C7.43248 16.2025 10.815 16.2025 12.8775 14.8225C14.6925 13.6075 14.6925 11.6275 12.8775 10.42C10.8225 9.0475 7.43998 9.0475 5.36998 10.42Z" stroke="white" stroke-width="1.125" stroke-linecap="round" stroke-linejoin="round"/>
</svg>
