<svg width="167" height="32" viewBox="0 0 167 32" fill="none" xmlns="http://www.w3.org/2000/svg">
<path d="M49.7199 28.5651C48.0861 28.5651 46.6079 28.1738 45.3242 27.352C44.0405 26.5303 43.0291 25.4346 42.2511 24.0259C41.512 22.6171 41.123 21.0128 41.123 19.1736C41.123 17.3736 41.512 15.7301 42.2511 14.3214C42.9902 12.9127 44.0016 11.7779 45.2853 10.9952C46.569 10.1735 48.0083 9.78217 49.6421 9.78217C50.8091 9.78217 51.9372 10.017 53.0264 10.5257C54.0767 11.0344 54.9325 11.6605 55.5938 12.4039V3.5212C55.5938 3.09076 55.9439 2.73858 56.3718 2.73858H58.3557C58.7836 2.73858 59.1337 3.09076 59.1337 3.5212V27.4303C59.1337 27.8607 58.7836 28.2129 58.3557 28.2129H56.3329C55.905 28.2129 55.5549 27.8607 55.5549 27.4303V25.7476C55.0103 26.5303 54.1934 27.1955 53.1431 27.7433C52.0539 28.2911 50.9258 28.5651 49.7199 28.5651ZM50.1867 25.4737C51.2759 25.4737 52.2095 25.1998 53.0264 24.652C53.8433 24.1041 54.5046 23.3606 54.9714 22.3824C55.4382 21.4432 55.6716 20.3475 55.6716 19.1345C55.6716 17.9214 55.4382 16.8258 54.9714 15.8866C54.5046 14.9475 53.8433 14.1648 53.0264 13.617C52.2095 13.0692 51.2759 12.7953 50.1867 12.7953C49.0975 12.7953 48.1639 13.0692 47.347 13.617C46.5301 14.1648 45.8688 14.9083 45.402 15.8866C44.9352 16.8258 44.7018 17.9214 44.7018 19.1345C44.7018 20.3475 44.9352 21.4432 45.402 22.3824C45.8688 23.3215 46.5301 24.1041 47.347 24.652C48.2028 25.1998 49.1364 25.4737 50.1867 25.4737Z" fill="white"/>
<path d="M71.3472 28.5663C69.48 28.5663 67.8462 28.1749 66.4458 27.3923C65.0065 26.6097 63.9173 25.514 63.1004 24.1444C62.2835 22.7749 61.8945 21.1705 61.8945 19.4096C61.8945 17.4922 62.2835 15.8487 63.0615 14.4008C63.8395 12.953 64.9287 11.8573 66.3291 11.0355C67.6906 10.2138 69.2855 9.78335 71.0749 9.78335C72.6309 9.82248 74.0313 10.2138 75.2761 10.9573C76.5209 11.7008 77.4934 12.7573 78.2325 14.0486C78.9327 15.34 79.2828 16.8661 79.2439 18.5487L79.205 20.0748H65.4344C65.6289 21.7183 66.2902 23.0096 67.4183 23.9488C68.5464 24.8879 69.9857 25.3966 71.6973 25.3966C72.592 25.3966 73.4089 25.2401 74.1869 24.9662C74.7704 24.7314 75.3928 24.3792 76.0541 23.8705C76.4042 23.5966 76.9099 23.6749 77.1822 24.0271L78.0769 25.2792C78.3103 25.6314 78.2714 26.0619 77.9213 26.3358C77.1822 26.9619 76.2875 27.4706 75.2372 27.8619C73.9146 28.2923 72.6309 28.5663 71.3472 28.5663ZM71.036 12.9921C67.9629 12.9921 66.1346 14.4008 65.5122 17.1791H75.5873V16.9443C75.5095 16.2008 75.2761 15.4965 74.8482 14.9095C74.4203 14.3226 73.8757 13.853 73.2144 13.5008C72.5142 13.1486 71.814 12.9921 71.036 12.9921Z" fill="white"/>
<path d="M85.041 27.4284V13.576H82.0846C81.6567 13.576 81.3066 13.2238 81.3066 12.7934V10.9151C81.3066 10.4847 81.6567 10.1325 82.0846 10.1325H85.041V6.29764C85.041 5.8672 85.3911 5.51502 85.819 5.51502H87.8029C88.2308 5.51502 88.5809 5.8672 88.5809 6.29764V10.1325H91.9652C92.3931 10.1325 92.7432 10.4847 92.7432 10.9151V12.7934C92.7432 13.2238 92.3931 13.576 91.9652 13.576H88.5809V27.4284C88.5809 27.8588 88.2308 28.211 87.8029 28.211H85.819C85.3911 28.211 85.041 27.8588 85.041 27.4284Z" fill="white"/>
<path d="M102.39 28.5648C100.912 28.5648 99.5505 28.1344 98.3446 27.3126C97.1387 26.4909 96.1662 25.3561 95.4271 23.9474C94.688 22.5386 94.3379 20.9343 94.3379 19.1342C94.3379 17.3342 94.7269 15.6907 95.466 14.282C96.2051 12.8733 97.2165 11.7776 98.4613 10.9559C99.745 10.1341 101.145 9.74279 102.74 9.74279C104.102 9.74279 105.269 10.0167 106.319 10.6037C107.369 11.1906 108.147 11.9341 108.692 12.8733V10.9167C108.692 10.4863 109.042 10.1341 109.47 10.1341H111.493C111.921 10.1341 112.271 10.4863 112.271 10.9167V27.43C112.271 27.8605 111.921 28.2126 111.493 28.2126H109.47C109.042 28.2126 108.692 27.8605 108.692 27.43V25.4343C108.07 26.2952 107.214 27.0387 106.086 27.6648C104.919 28.2518 103.713 28.5648 102.39 28.5648ZM103.324 25.2778C104.413 25.2778 105.347 25.0039 106.163 24.4952C106.98 23.9865 107.642 23.243 108.108 22.3039C108.575 21.3647 108.809 20.3082 108.809 19.1342C108.809 17.9603 108.575 16.9038 108.108 16.0038C107.642 15.1037 106.98 14.3603 106.163 13.8515C105.347 13.3428 104.413 13.0689 103.324 13.0689C102.273 13.0689 101.34 13.3428 100.523 13.8515C99.7061 14.3994 99.0837 15.1037 98.6169 16.0038C98.1501 16.9038 97.9167 17.9603 97.9167 19.1342C97.9167 20.3473 98.1501 21.4038 98.6169 22.3039C99.0837 23.243 99.7061 23.9474 100.523 24.4952C101.34 25.0039 102.273 25.2778 103.324 25.2778Z" fill="white"/>
<path d="M115.851 27.4303V3.5212C115.851 3.09076 116.201 2.73858 116.629 2.73858H118.612C119.04 2.73858 119.39 3.09076 119.39 3.5212V27.4303C119.39 27.8607 119.04 28.2129 118.612 28.2129H116.629C116.201 28.2129 115.851 27.8607 115.851 27.4303Z" fill="white"/>
<path d="M123.008 27.4303V3.5212C123.008 3.09076 123.358 2.73858 123.786 2.73858H125.77C126.198 2.73858 126.548 3.09076 126.548 3.5212V12.9518C127.131 12.0518 127.987 11.3083 129.076 10.6822C130.165 10.0561 131.293 9.74304 132.46 9.74304C136.584 9.74304 138.607 12.2083 138.607 17.1779V27.4303C138.607 27.8607 138.257 28.2129 137.829 28.2129H135.845C135.417 28.2129 135.067 27.8607 135.067 27.4303V17.4127C135.067 14.3214 133.783 12.8344 131.255 12.9518C130.36 12.9518 129.543 13.1474 128.843 13.5388C128.143 13.9301 127.559 14.4388 127.131 15.0649C126.703 15.691 126.509 16.4344 126.509 17.2171V27.3911C126.509 27.8216 126.159 28.1738 125.731 28.1738H123.747C123.358 28.2129 123.008 27.8607 123.008 27.4303Z" fill="white"/>
<path d="M150.783 28.5663C148.916 28.5663 147.282 28.1749 145.881 27.3923C144.442 26.6097 143.353 25.514 142.536 24.1444C141.719 22.7749 141.33 21.1705 141.33 19.4096C141.33 17.4922 141.719 15.8487 142.497 14.4008C143.275 12.953 144.364 11.8573 145.765 11.0355C147.126 10.2138 148.721 9.78335 150.51 9.78335C152.066 9.82248 153.467 10.2138 154.712 10.9573C155.956 11.7008 156.929 12.7573 157.668 14.0486C158.368 15.34 158.718 16.8661 158.679 18.5487V19.2922C158.679 19.7226 158.329 20.0748 157.901 20.0748H144.909C145.103 21.7183 145.765 23.0096 146.893 23.9488C148.021 24.8879 149.46 25.3966 151.172 25.3966C152.066 25.3966 152.883 25.2401 153.661 24.9662C154.245 24.7314 154.867 24.3792 155.529 23.8705C155.879 23.5966 156.384 23.6749 156.657 24.0271L157.551 25.2792C157.785 25.6314 157.746 26.0619 157.396 26.3358C156.657 26.9619 155.762 27.4706 154.712 27.8619C153.35 28.2923 152.066 28.5663 150.783 28.5663ZM150.472 12.9921C147.398 12.9921 145.57 14.4008 144.948 17.1791H155.023V16.9443C154.945 16.2008 154.712 15.4965 154.284 14.9095C153.856 14.3226 153.311 13.853 152.65 13.5008C151.989 13.1486 151.25 12.9921 150.472 12.9921Z" fill="white"/>
<path d="M166.109 4.4569C165.603 3.9482 164.903 3.67428 164.008 3.67428C163.114 3.67428 162.414 3.9482 161.908 4.49603C161.402 5.04387 161.13 5.74823 161.13 6.60911C161.13 7.54826 161.363 8.25261 161.869 8.76132C162.375 9.27002 163.075 9.54394 163.97 9.54394C164.864 9.54394 165.564 9.27002 166.07 8.72219C166.576 8.17435 166.848 7.46999 166.848 6.60911C166.848 5.7091 166.576 4.96561 166.109 4.4569Z" fill="white"/>
<path d="M164.981 11.305H162.997C162.569 11.305 162.219 11.6572 162.219 12.0876V27.427C162.219 27.8574 162.569 28.2096 162.997 28.2096H164.981C165.409 28.2096 165.759 27.8574 165.759 27.427V12.0876C165.759 11.6572 165.409 11.305 164.981 11.305Z" fill="white"/>
<path d="M18.5013 1.39879L18.5013 30.3953C18.5013 31.151 17.8891 31.7948 17.1101 31.7948H16.0806C7.17707 31.7948 0.193359 24.9095 0.193359 16.149L0.193359 16.009C0.193359 7.16451 7.31619 -0.000652313 16.1084 -0.000652313H17.1379C17.8891 -0.000652313 18.5013 0.615103 18.5013 1.39879ZM13.6878 26.7008L13.6878 5.14931C8.73519 6.26887 5.03466 10.7191 5.03466 16.037V16.1769C5.00684 21.3829 8.67955 25.6372 13.6878 26.7008Z" fill="#329FC0"/>
<path d="M33.1075 11.3663C35.6123 11.3663 37.6428 9.32371 37.6428 6.80408C37.6428 4.28445 35.6123 2.24189 33.1075 2.24189C30.6028 2.24189 28.5723 4.28445 28.5723 6.80408C28.5723 9.32371 30.6028 11.3663 33.1075 11.3663Z" fill="#2FBF90"/>
<path d="M19.9482 27.6534V31.1241C19.9482 31.5159 20.2821 31.8518 20.6717 31.8238C28.7961 31.404 35.3068 24.8545 35.752 16.6818C35.7799 16.2899 35.446 15.9541 35.0564 15.9541H31.6063C31.2446 15.9541 30.9385 16.2339 30.9107 16.5978C30.549 22.1396 26.0972 26.6178 20.5882 26.9537C20.2265 26.9817 19.9482 27.2896 19.9482 27.6534Z" fill="#FF9D00"/>
<path fill-rule="evenodd" clip-rule="evenodd" d="M22.2696 19.0971C23.5231 19.0971 24.5393 18.0809 24.5393 16.8274V2.27137C24.5393 1.01788 23.5231 0.00172806 22.2696 0.00172806C21.0162 0.00172806 20 1.01788 20 2.27138L20 16.8274C20 18.0809 21.0162 19.0971 22.2696 19.0971Z" fill="#C82B5E"/>
<path d="M18.5013 1.39879L18.5013 30.3953C18.5013 31.151 17.8891 31.7948 17.1101 31.7948H16.0806C7.17707 31.7948 0.193359 24.9095 0.193359 16.149L0.193359 16.009C0.193359 7.16451 7.31619 -0.000652313 16.1084 -0.000652313H17.1379C17.8891 -0.000652313 18.5013 0.615103 18.5013 1.39879ZM13.6878 26.7008L13.6878 5.14931C8.73519 6.26887 5.03466 10.7191 5.03466 16.037V16.1769C5.00684 21.3829 8.67955 25.6372 13.6878 26.7008Z" fill="#329FC0"/>
<path d="M33.1075 11.3663C35.6123 11.3663 37.6427 9.32371 37.6427 6.80408C37.6427 4.28445 35.6123 2.24189 33.1075 2.24189C30.6028 2.24189 28.5723 4.28445 28.5723 6.80408C28.5723 9.32371 30.6028 11.3663 33.1075 11.3663Z" fill="#2FBF90"/>
<path d="M19.9482 27.6534V31.1241C19.9482 31.5159 20.2821 31.8518 20.6717 31.8238C28.7961 31.404 35.3068 24.8545 35.752 16.6818C35.7799 16.2899 35.446 15.9541 35.0564 15.9541H31.6063C31.2446 15.9541 30.9385 16.2339 30.9107 16.5978C30.549 22.1396 26.0972 26.6178 20.5882 26.9537C20.2265 26.9817 19.9482 27.2896 19.9482 27.6534Z" fill="#FF9D00"/>
<path fill-rule="evenodd" clip-rule="evenodd" d="M22.2696 19.0971C23.5231 19.0971 24.5393 18.0809 24.5393 16.8274V2.27137C24.5393 1.01788 23.5231 0.00172806 22.2696 0.00172806C21.0162 0.00172806 20 1.01788 20 2.27138L20 16.8274C20 18.0809 21.0162 19.0971 22.2696 19.0971Z" fill="#C82B5E"/>
</svg>
