<svg width="118" height="29" viewBox="0 0 118 29" fill="none" xmlns="http://www.w3.org/2000/svg">
<path d="M16.832 1.27032L16.832 27.5952C16.832 28.2813 16.2763 28.8657 15.569 28.8657H14.6344C6.5512 28.8657 0.210938 22.6148 0.210938 14.6615L0.210938 14.5344C0.210938 6.50481 6.6775 -0.000185013 14.6597 -0.000185013H15.5943C16.2763 -0.000185013 16.832 0.558838 16.832 1.27032ZM12.462 24.2411L12.462 4.67528C7.96576 5.69168 4.60618 9.7319 4.60618 14.5598V14.6869C4.58092 19.4132 7.91524 23.2755 12.462 24.2411Z" fill="#329FC0"/>
<path d="M30.093 10.3164C32.3669 10.3164 34.2104 8.46205 34.2104 6.17457C34.2104 3.88709 32.3669 2.03271 30.093 2.03271C27.819 2.03271 25.9756 3.88709 25.9756 6.17457C25.9756 8.46205 27.819 10.3164 30.093 10.3164Z" fill="#2FBF90"/>
<path d="M18.1455 25.1055V28.2563C18.1455 28.6121 18.4486 28.917 18.8023 28.8916C26.1782 28.5104 32.089 22.5645 32.4932 15.1447C32.5185 14.7889 32.2153 14.484 31.8617 14.484H28.7294C28.4011 14.484 28.1232 14.7381 28.0979 15.0685C27.7696 20.0997 23.728 24.1653 18.7265 24.4702C18.3981 24.4956 18.1455 24.7751 18.1455 25.1055Z" fill="#FF9D00"/>
<path fill-rule="evenodd" clip-rule="evenodd" d="M20.2539 17.3359C21.3919 17.3359 22.3144 16.4134 22.3144 15.2754V2.06051C22.3144 0.922512 21.3919 -1.90735e-05 20.2539 -1.90735e-05C19.1159 -1.90735e-05 18.1934 0.922512 18.1934 2.06051L18.1934 15.2754C18.1934 16.4134 19.1159 17.3359 20.2539 17.3359Z" fill="#C82B5E"/>
<path d="M55.0429 9.32629C56.2269 9.32629 57.2616 9.55562 58.1469 10.0143C59.0429 10.4623 59.7309 11.113 60.2109 11.9663C60.7016 12.809 60.9469 13.7956 60.9469 14.9263C60.9469 16.057 60.7016 17.0383 60.2109 17.8703C59.7309 18.7023 59.0429 19.3423 58.1469 19.7903C57.2616 20.2276 56.2269 20.4463 55.0429 20.4463H51.4109V9.32629H55.0429ZM55.0429 18.9583C56.3443 18.9583 57.3416 18.6063 58.0349 17.9023C58.7283 17.1983 59.0749 16.2063 59.0749 14.9263C59.0749 13.6356 58.7283 12.6276 58.0349 11.9023C57.3416 11.177 56.3443 10.8143 55.0429 10.8143H53.2349V18.9583H55.0429ZM70.8347 15.8223C70.8347 16.153 70.8134 16.4516 70.7707 16.7183H64.0347C64.088 17.4223 64.3494 17.9876 64.8187 18.4143C65.288 18.841 65.864 19.0543 66.5467 19.0543C67.528 19.0543 68.2214 18.6436 68.6267 17.8223H70.5947C70.328 18.633 69.8427 19.2996 69.1387 19.8223C68.4454 20.3343 67.5814 20.5903 66.5467 20.5903C65.704 20.5903 64.9467 20.4036 64.2747 20.0303C63.6134 19.6463 63.0907 19.113 62.7067 18.4303C62.3334 17.737 62.1467 16.937 62.1467 16.0303C62.1467 15.1236 62.328 14.329 62.6907 13.6463C63.064 12.953 63.5814 12.4196 64.2427 12.0463C64.9147 11.673 65.6827 11.4863 66.5467 11.4863C67.3787 11.4863 68.12 11.6676 68.7707 12.0303C69.4214 12.393 69.928 12.905 70.2907 13.5663C70.6534 14.217 70.8347 14.969 70.8347 15.8223ZM68.9307 15.2463C68.92 14.5743 68.68 14.0356 68.2107 13.6303C67.7414 13.225 67.16 13.0223 66.4667 13.0223C65.8374 13.0223 65.2987 13.225 64.8507 13.6303C64.4027 14.025 64.136 14.5636 64.0507 15.2463H68.9307ZM74.7577 13.1183V17.9983C74.7577 18.329 74.8324 18.569 74.9817 18.7183C75.1417 18.857 75.4084 18.9263 75.7817 18.9263H76.9017V20.4463H75.4617C74.6404 20.4463 74.011 20.2543 73.5737 19.8703C73.1364 19.4863 72.9177 18.8623 72.9177 17.9983V13.1183H71.8777V11.6303H72.9177V9.43829H74.7577V11.6303H76.9017V13.1183H74.7577ZM77.9748 15.9983C77.9748 15.113 78.1561 14.329 78.5188 13.6463C78.8921 12.9636 79.3935 12.4356 80.0228 12.0623C80.6628 11.6783 81.3668 11.4863 82.1348 11.4863C82.8281 11.4863 83.4308 11.625 83.9428 11.9023C84.4655 12.169 84.8815 12.505 85.1908 12.9103V11.6303H87.0308V20.4463H85.1908V19.1343C84.8815 19.5503 84.4601 19.897 83.9268 20.1743C83.3935 20.4516 82.7855 20.5903 82.1028 20.5903C81.3455 20.5903 80.6521 20.3983 80.0228 20.0143C79.3935 19.6196 78.8921 19.0756 78.5188 18.3823C78.1561 17.6783 77.9748 16.8836 77.9748 15.9983ZM85.1908 16.0303C85.1908 15.4223 85.0628 14.8943 84.8068 14.4463C84.5615 13.9983 84.2361 13.657 83.8308 13.4223C83.4255 13.1876 82.9881 13.0703 82.5188 13.0703C82.0495 13.0703 81.6121 13.1876 81.2068 13.4223C80.8015 13.6463 80.4708 13.9823 80.2148 14.4303C79.9695 14.8676 79.8468 15.3903 79.8468 15.9983C79.8468 16.6063 79.9695 17.1396 80.2148 17.5983C80.4708 18.057 80.8015 18.409 81.2068 18.6543C81.6228 18.889 82.0601 19.0063 82.5188 19.0063C82.9881 19.0063 83.4255 18.889 83.8308 18.6543C84.2361 18.4196 84.5615 18.0783 84.8068 17.6303C85.0628 17.1716 85.1908 16.6383 85.1908 16.0303ZM91.2506 8.60629V20.4463H89.4266V8.60629H91.2506ZM98.2053 11.4863C98.8773 11.4863 99.4746 11.6303 99.9973 11.9183C100.531 12.2063 100.947 12.633 101.245 13.1983C101.555 13.7636 101.709 14.4463 101.709 15.2463V20.4463H99.9013V15.5183C99.9013 14.729 99.704 14.1263 99.3093 13.7103C98.9146 13.2836 98.376 13.0703 97.6933 13.0703C97.0106 13.0703 96.4666 13.2836 96.0613 13.7103C95.6666 14.1263 95.4693 14.729 95.4693 15.5183V20.4463H93.6453V8.60629H95.4693V12.6543C95.7786 12.281 96.168 11.993 96.6373 11.7903C97.1173 11.5876 97.64 11.4863 98.2053 11.4863ZM112.116 15.8223C112.116 16.153 112.095 16.4516 112.052 16.7183H105.316C105.369 17.4223 105.631 17.9876 106.1 18.4143C106.569 18.841 107.145 19.0543 107.828 19.0543C108.809 19.0543 109.503 18.6436 109.908 17.8223H111.876C111.609 18.633 111.124 19.2996 110.42 19.8223C109.727 20.3343 108.863 20.5903 107.828 20.5903C106.985 20.5903 106.228 20.4036 105.556 20.0303C104.895 19.6463 104.372 19.113 103.988 18.4303C103.615 17.737 103.428 16.937 103.428 16.0303C103.428 15.1236 103.609 14.329 103.972 13.6463C104.345 12.953 104.863 12.4196 105.524 12.0463C106.196 11.673 106.964 11.4863 107.828 11.4863C108.66 11.4863 109.401 11.6676 110.052 12.0303C110.703 12.393 111.209 12.905 111.572 13.5663C111.935 14.217 112.116 14.969 112.116 15.8223ZM110.212 15.2463C110.201 14.5743 109.961 14.0356 109.492 13.6303C109.023 13.225 108.441 13.0223 107.748 13.0223C107.119 13.0223 106.58 13.225 106.132 13.6303C105.684 14.025 105.417 14.5636 105.332 15.2463H110.212ZM114.839 10.4623C114.508 10.4623 114.231 10.3503 114.007 10.1263C113.783 9.90229 113.671 9.62496 113.671 9.29429C113.671 8.96362 113.783 8.68629 114.007 8.46229C114.231 8.23829 114.508 8.12629 114.839 8.12629C115.159 8.12629 115.431 8.23829 115.655 8.46229C115.879 8.68629 115.991 8.96362 115.991 9.29429C115.991 9.62496 115.879 9.90229 115.655 10.1263C115.431 10.3503 115.159 10.4623 114.839 10.4623ZM115.735 11.6303V20.4463H113.911V11.6303H115.735Z" fill="#07070E"/>
</svg>
