<svg width="145" height="28" viewBox="0 0 145 28" fill="none" xmlns="http://www.w3.org/2000/svg">
<path d="M43.4896 24.7567C42.0736 24.7567 40.7925 24.4176 39.68 23.7054C38.5674 22.9932 37.6909 22.0436 37.0166 20.8228C36.3761 19.6019 36.0389 18.2114 36.0389 16.6175C36.0389 15.0575 36.3761 13.6331 37.0166 12.4122C37.6572 11.1913 38.5337 10.2078 39.6463 9.52954C40.7588 8.81736 42.0062 8.47822 43.4221 8.47822C44.4335 8.47822 45.4112 8.6817 46.3552 9.12258C47.2654 9.56346 48.0071 10.1061 48.5803 10.7504V3.05205C48.5803 2.679 48.8837 2.37378 49.2545 2.37378H50.9739C51.3447 2.37378 51.6482 2.679 51.6482 3.05205V23.7732C51.6482 24.1463 51.3447 24.4515 50.9739 24.4515H49.2208C48.85 24.4515 48.5465 24.1463 48.5465 23.7732V22.315C48.0746 22.9932 47.3666 23.5698 46.4563 24.0445C45.5124 24.5193 44.5347 24.7567 43.4896 24.7567ZM43.8941 22.0776C44.8381 22.0776 45.6472 21.8402 46.3552 21.3654C47.0632 20.8906 47.6363 20.2462 48.0408 19.3984C48.4454 18.5845 48.6477 17.6349 48.6477 16.5836C48.6477 15.5322 48.4454 14.5827 48.0408 13.7687C47.6363 12.9548 47.0632 12.2765 46.3552 11.8018C45.6472 11.327 44.8381 11.0896 43.8941 11.0896C42.9501 11.0896 42.141 11.327 41.4331 11.8018C40.7251 12.2765 40.152 12.9209 39.7474 13.7687C39.3428 14.5827 39.1406 15.5322 39.1406 16.5836C39.1406 17.6349 39.3428 18.5845 39.7474 19.3984C40.152 20.2123 40.7251 20.8906 41.4331 21.3654C42.1747 21.8402 42.9839 22.0776 43.8941 22.0776Z" fill="#979797"/>
<path d="M62.2341 24.7568C60.6158 24.7568 59.1999 24.4177 57.9862 23.7394C56.7388 23.0611 55.7948 22.1115 55.0869 20.9246C54.3789 19.7376 54.0417 18.3471 54.0417 16.821C54.0417 15.1592 54.3789 13.7349 55.0531 12.4801C55.7274 11.2253 56.6714 10.2757 57.8851 9.56351C59.065 8.85132 60.4473 8.47827 61.9981 8.47827C63.3466 8.51219 64.5603 8.85132 65.6391 9.49568C66.7179 10.14 67.5607 11.0557 68.2013 12.1748C68.8081 13.294 69.1115 14.6166 69.0778 16.0749L69.0441 17.3975H57.1096C57.2782 18.8219 57.8513 19.9411 58.829 20.755C59.8067 21.5689 61.0541 22.0098 62.5375 22.0098C63.3129 22.0098 64.0209 21.8741 64.6951 21.6367C65.2008 21.4333 65.7402 21.128 66.3134 20.6872C66.6168 20.4498 67.055 20.5176 67.291 20.8228L68.0664 21.908C68.2687 22.2133 68.235 22.5863 67.9316 22.8237C67.291 23.3663 66.5156 23.8072 65.6054 24.1463C64.4591 24.5194 63.3466 24.7568 62.2341 24.7568ZM61.9643 11.2592C59.301 11.2592 57.7165 12.4801 57.1771 14.8879H65.9088V14.6845C65.8414 14.0401 65.6391 13.4297 65.2682 12.921C64.8974 12.4122 64.4254 12.0053 63.8523 11.7001C63.2455 11.3948 62.6386 11.2592 61.9643 11.2592Z" fill="#979797"/>
<path d="M74.1012 23.7733V11.7679H71.539C71.1682 11.7679 70.8647 11.4627 70.8647 11.0897V9.46181C70.8647 9.08876 71.1682 8.78354 71.539 8.78354H74.1012V5.46001C74.1012 5.08696 74.4046 4.78174 74.7755 4.78174H76.4948C76.8657 4.78174 77.1691 5.08696 77.1691 5.46001V8.78354H80.1022C80.473 8.78354 80.7764 9.08876 80.7764 9.46181V11.0897C80.7764 11.4627 80.473 11.7679 80.1022 11.7679H77.1691V23.7733C77.1691 24.1464 76.8657 24.4516 76.4948 24.4516H74.7755C74.4046 24.4516 74.1012 24.1464 74.1012 23.7733Z" fill="#979797"/>
<path d="M89.1372 24.7568C87.8561 24.7568 86.6761 24.3837 85.631 23.6715C84.5859 22.9593 83.7431 21.9758 83.1025 20.755C82.462 19.5341 82.1586 18.1436 82.1586 16.5836C82.1586 15.0236 82.4957 13.5992 83.1362 12.3783C83.7768 11.1574 84.6533 10.2078 85.7322 9.49566C86.8447 8.78347 88.0584 8.44434 89.4406 8.44434C90.6206 8.44434 91.632 8.68173 92.5422 9.19043C93.4525 9.69914 94.1267 10.3435 94.5987 11.1574V9.46174C94.5987 9.08869 94.9021 8.78347 95.273 8.78347H97.0261C97.3969 8.78347 97.7003 9.08869 97.7003 9.46174V23.7733C97.7003 24.1463 97.3969 24.4515 97.0261 24.4515H95.273C94.9021 24.4515 94.5987 24.1463 94.5987 23.7733V22.0437C94.0593 22.7898 93.3176 23.4341 92.3399 23.9767C91.3285 24.4855 90.2834 24.7568 89.1372 24.7568ZM89.9463 21.908C90.8903 21.908 91.6994 21.6706 92.4074 21.2298C93.1153 20.7889 93.6885 20.1445 94.093 19.3306C94.4976 18.5167 94.6999 17.601 94.6999 16.5836C94.6999 15.5662 94.4976 14.6505 94.093 13.8705C93.6885 13.0905 93.1153 12.4461 92.4074 12.0053C91.6994 11.5644 90.8903 11.327 89.9463 11.327C89.036 11.327 88.2269 11.5644 87.519 12.0053C86.811 12.48 86.2716 13.0905 85.867 13.8705C85.4625 14.6505 85.2602 15.5662 85.2602 16.5836C85.2602 17.6349 85.4625 18.5506 85.867 19.3306C86.2716 20.1445 86.811 20.755 87.519 21.2298C88.2269 21.6706 89.036 21.908 89.9463 21.908Z" fill="#979797"/>
<path d="M100.802 23.7732V3.05205C100.802 2.679 101.105 2.37378 101.476 2.37378H103.196C103.566 2.37378 103.87 2.679 103.87 3.05205V23.7732C103.87 24.1463 103.566 24.4515 103.196 24.4515H101.476C101.105 24.4515 100.802 24.1463 100.802 23.7732Z" fill="#979797"/>
<path d="M107.005 23.7732V3.05205C107.005 2.679 107.309 2.37378 107.68 2.37378H109.399C109.77 2.37378 110.073 2.679 110.073 3.05205V11.2252C110.579 10.4452 111.321 9.80085 112.265 9.25823C113.208 8.71562 114.186 8.44431 115.198 8.44431C118.771 8.44431 120.524 10.5809 120.524 14.8879V23.7732C120.524 24.1463 120.221 24.4515 119.85 24.4515H118.131C117.76 24.4515 117.456 24.1463 117.456 23.7732V15.0914C117.456 12.4122 116.344 11.1235 114.152 11.2252C113.377 11.2252 112.669 11.3948 112.062 11.7339C111.455 12.0731 110.95 12.5139 110.579 13.0566C110.208 13.5992 110.039 14.2435 110.039 14.9218V23.7393C110.039 24.1124 109.736 24.4176 109.365 24.4176H107.646C107.309 24.4515 107.005 24.1463 107.005 23.7732Z" fill="#979797"/>
<path d="M131.076 24.7568C129.458 24.7568 128.042 24.4177 126.829 23.7394C125.581 23.0611 124.637 22.1115 123.929 20.9246C123.221 19.7376 122.884 18.3471 122.884 16.821C122.884 15.1592 123.221 13.7349 123.896 12.4801C124.57 11.2253 125.514 10.2757 126.727 9.56351C127.907 8.85132 129.29 8.47827 130.84 8.47827C132.189 8.51219 133.403 8.85132 134.481 9.49568C135.56 10.14 136.403 11.0557 137.044 12.1748C137.651 13.294 137.954 14.6166 137.92 16.0749V16.7193C137.92 17.0923 137.617 17.3975 137.246 17.3975H125.986C126.154 18.8219 126.727 19.9411 127.705 20.755C128.683 21.5689 129.93 22.0098 131.414 22.0098C132.189 22.0098 132.897 21.8741 133.571 21.6367C134.077 21.4333 134.616 21.128 135.189 20.6872C135.493 20.4498 135.931 20.5176 136.167 20.8228L136.943 21.908C137.145 22.2133 137.111 22.5863 136.808 22.8237C136.167 23.3663 135.392 23.8072 134.481 24.1463C133.302 24.5194 132.189 24.7568 131.076 24.7568ZM130.807 11.2592C128.143 11.2592 126.559 12.4801 126.019 14.8879H134.751V14.6845C134.684 14.0401 134.481 13.4297 134.111 12.921C133.74 12.4122 133.268 12.0053 132.695 11.7001C132.122 11.3948 131.481 11.2592 130.807 11.2592Z" fill="#979797"/>
<path d="M144.359 3.86602C143.921 3.42514 143.314 3.18774 142.539 3.18774C141.764 3.18774 141.157 3.42514 140.718 3.89993C140.28 4.37472 140.044 4.98516 140.044 5.73126C140.044 6.54519 140.246 7.15563 140.685 7.59651C141.123 8.03739 141.73 8.27478 142.505 8.27478C143.281 8.27478 143.887 8.03739 144.326 7.5626C144.764 7.08781 145 6.47736 145 5.73126C145 4.95125 144.764 4.30689 144.359 3.86602Z" fill="#979797"/>
<path d="M143.382 9.80078H141.662C141.292 9.80078 140.988 10.106 140.988 10.4791V23.7732C140.988 24.1462 141.292 24.4514 141.662 24.4514H143.382C143.753 24.4514 144.056 24.1462 144.056 23.7732V10.4791C144.056 10.106 143.753 9.80078 143.382 9.80078Z" fill="#979797"/>
<path d="M16.4325 1.21297V26.3433C16.4325 26.9982 15.902 27.5562 15.2268 27.5562H14.3346C6.61823 27.5562 0.565674 21.5889 0.565674 13.9964V13.8752C0.565674 6.20993 6.7388 0.000119699 14.3587 0.000119699H15.251C15.902 0.000119699 16.4325 0.533775 16.4325 1.21297ZM12.2608 23.1414L12.2608 4.46342C7.9686 5.4337 4.76147 9.29058 4.76147 13.8994V14.0207C4.73735 18.5325 7.92037 22.2196 12.2608 23.1414Z" fill="#329FC0"/>
<path d="M29.0923 9.84848C31.2631 9.84848 33.0228 8.07826 33.0228 5.89458C33.0228 3.7109 31.2631 1.94067 29.0923 1.94067C26.9215 1.94067 25.1617 3.7109 25.1617 5.89458C25.1617 8.07826 26.9215 9.84848 29.0923 9.84848Z" fill="#2FBF90"/>
<path d="M17.6864 23.9661V26.9739C17.6864 27.3135 17.9758 27.6046 18.3134 27.5804C25.3546 27.2165 30.9972 21.5404 31.383 14.4573C31.4071 14.1177 31.1178 13.8266 30.7802 13.8266H27.7901C27.4766 13.8266 27.2113 14.0692 27.1872 14.3845C26.8737 19.1874 23.0155 23.0686 18.241 23.3596C17.9275 23.3839 17.6864 23.6507 17.6864 23.9661Z" fill="#FF9D00"/>
<path fill-rule="evenodd" clip-rule="evenodd" d="M19.6995 16.5493C20.7858 16.5493 21.6665 15.6686 21.6665 14.5823V1.96706C21.6665 0.880701 20.7858 3.22312e-05 19.6994 3.22312e-05V3.22312e-05C18.6131 3.22312e-05 17.7324 0.8807 17.7324 1.96706L17.7324 14.5823C17.7324 15.6686 18.6131 16.5493 19.6995 16.5493V16.5493Z" fill="#C82B5E"/>
<path d="M16.4325 1.21297V26.3433C16.4325 26.9982 15.902 27.5562 15.2268 27.5562H14.3346C6.61823 27.5562 0.565674 21.5889 0.565674 13.9964V13.8752C0.565674 6.20993 6.7388 0.000119699 14.3587 0.000119699H15.251C15.902 0.000119699 16.4325 0.533775 16.4325 1.21297ZM12.2608 23.1414L12.2608 4.46342C7.9686 5.4337 4.76147 9.29058 4.76147 13.8994V14.0207C4.73735 18.5325 7.92037 22.2196 12.2608 23.1414Z" fill="#329FC0"/>
<path d="M29.0923 9.84848C31.2631 9.84848 33.0228 8.07826 33.0228 5.89458C33.0228 3.7109 31.2631 1.94067 29.0923 1.94067C26.9215 1.94067 25.1617 3.7109 25.1617 5.89458C25.1617 8.07826 26.9215 9.84848 29.0923 9.84848Z" fill="#2FBF90"/>
<path d="M17.6864 23.9661V26.9739C17.6864 27.3135 17.9758 27.6046 18.3134 27.5804C25.3546 27.2165 30.9972 21.5404 31.383 14.4573C31.4071 14.1177 31.1178 13.8266 30.7802 13.8266H27.7901C27.4766 13.8266 27.2113 14.0692 27.1872 14.3845C26.8737 19.1874 23.0155 23.0686 18.241 23.3596C17.9275 23.3839 17.6864 23.6507 17.6864 23.9661Z" fill="#FF9D00"/>
<path fill-rule="evenodd" clip-rule="evenodd" d="M19.6995 16.5493C20.7858 16.5493 21.6665 15.6686 21.6665 14.5823V1.96706C21.6665 0.880701 20.7858 3.22312e-05 19.6994 3.22312e-05V3.22312e-05C18.6131 3.22312e-05 17.7324 0.8807 17.7324 1.96706L17.7324 14.5823C17.7324 15.6686 18.6131 16.5493 19.6995 16.5493V16.5493Z" fill="#C82B5E"/>
</svg>
