<svg width="167" height="32" viewBox="0 0 167 32" fill="none" xmlns="http://www.w3.org/2000/svg">
<path d="M49.7187 28.5655C48.0849 28.5655 46.6067 28.1742 45.323 27.3524C44.0393 26.5307 43.0279 25.435 42.2499 24.0263C41.5108 22.6176 41.1218 21.0132 41.1218 19.1741C41.1218 17.374 41.5108 15.7305 42.2499 14.3218C42.989 12.9131 44.0004 11.7783 45.2841 10.9957C46.5678 10.1739 48.0071 9.7826 49.6409 9.7826C50.8079 9.7826 51.936 10.0174 53.0252 10.5261C54.0755 11.0348 54.9313 11.6609 55.5926 12.4044V3.52163C55.5926 3.09119 55.9427 2.73901 56.3706 2.73901H58.3545C58.7824 2.73901 59.1325 3.09119 59.1325 3.52163V27.4307C59.1325 27.8611 58.7824 28.2133 58.3545 28.2133H56.3317C55.9038 28.2133 55.5537 27.8611 55.5537 27.4307V25.7481C55.0091 26.5307 54.1922 27.1959 53.1419 27.7437C52.0527 28.2916 50.9246 28.5655 49.7187 28.5655ZM50.1855 25.4741C51.2747 25.4741 52.2083 25.2002 53.0252 24.6524C53.8421 24.1046 54.5034 23.3611 54.9702 22.3828C55.437 21.4436 55.6704 20.348 55.6704 19.1349C55.6704 17.9219 55.437 16.8262 54.9702 15.887C54.5034 14.9479 53.8421 14.1653 53.0252 13.6174C52.2083 13.0696 51.2747 12.7957 50.1855 12.7957C49.0963 12.7957 48.1627 13.0696 47.3458 13.6174C46.5289 14.1653 45.8676 14.9088 45.4008 15.887C44.934 16.8262 44.7006 17.9219 44.7006 19.1349C44.7006 20.348 44.934 21.4436 45.4008 22.3828C45.8676 23.3219 46.5289 24.1046 47.3458 24.6524C48.2016 25.2002 49.1352 25.4741 50.1855 25.4741Z" fill="white"/>
<path d="M71.347 28.5656C69.4798 28.5656 67.846 28.1743 66.4456 27.3917C65.0063 26.6091 63.9171 25.5134 63.1002 24.1438C62.2833 22.7742 61.8943 21.1698 61.8943 19.409C61.8943 17.4915 62.2833 15.848 63.0613 14.4002C63.8393 12.9523 64.9285 11.8567 66.3289 11.0349C67.6904 10.2132 69.2853 9.78271 71.0746 9.78271C72.6306 9.82185 74.031 10.2132 75.2758 10.9566C76.5206 11.7001 77.4931 12.7567 78.2322 14.048C78.9324 15.3393 79.2825 16.8654 79.2436 18.5481L79.2047 20.0742H65.4342C65.6287 21.7177 66.29 23.009 67.4181 23.9482C68.5462 24.8873 69.9855 25.396 71.697 25.396C72.5917 25.396 73.4086 25.2395 74.1866 24.9656C74.7701 24.7308 75.3925 24.3786 76.0538 23.8699C76.4039 23.596 76.9096 23.6742 77.1819 24.0264L78.0766 25.2786C78.31 25.6308 78.2711 26.0612 77.921 26.3351C77.1819 26.9612 76.2872 27.4699 75.2369 27.8613C73.9143 28.2917 72.6306 28.5656 71.347 28.5656ZM71.0357 12.9915C67.9627 12.9915 66.1344 14.4002 65.512 17.1785H75.587V16.9437C75.5092 16.2002 75.2758 15.4958 74.8479 14.9089C74.42 14.3219 73.8754 13.8523 73.2141 13.5002C72.5139 13.148 71.8137 12.9915 71.0357 12.9915Z" fill="white"/>
<path d="M85.0398 27.4307V13.5783H82.0834C81.6555 13.5783 81.3054 13.2261 81.3054 12.7957V10.9174C81.3054 10.487 81.6555 10.1348 82.0834 10.1348H85.0398V6.29995C85.0398 5.86951 85.3899 5.51733 85.8178 5.51733H87.8017C88.2296 5.51733 88.5797 5.86951 88.5797 6.29995V10.1348H91.964C92.3919 10.1348 92.742 10.487 92.742 10.9174V12.7957C92.742 13.2261 92.3919 13.5783 91.964 13.5783H88.5797V27.4307C88.5797 27.8612 88.2296 28.2133 87.8017 28.2133H85.8178C85.3899 28.2133 85.0398 27.8612 85.0398 27.4307Z" fill="white"/>
<path d="M102.389 28.5654C100.911 28.5654 99.5494 28.135 98.3435 27.3132C97.1376 26.4915 96.1651 25.3567 95.426 23.948C94.6869 22.5393 94.3368 20.9349 94.3368 19.1349C94.3368 17.3348 94.7258 15.6913 95.4649 14.2826C96.204 12.8739 97.2154 11.7782 98.4602 10.9565C99.7439 10.1347 101.144 9.74341 102.739 9.74341C104.101 9.74341 105.268 10.0173 106.318 10.6043C107.368 11.1913 108.146 11.9347 108.691 12.8739V10.9173C108.691 10.4869 109.041 10.1347 109.469 10.1347H111.492C111.919 10.1347 112.27 10.4869 112.27 10.9173V27.4306C112.27 27.8611 111.919 28.2133 111.492 28.2133H109.469C109.041 28.2133 108.691 27.8611 108.691 27.4306V25.435C108.068 26.2958 107.213 27.0393 106.085 27.6654C104.918 28.2524 103.712 28.5654 102.389 28.5654ZM103.323 25.2784C104.412 25.2784 105.345 25.0045 106.162 24.4958C106.979 23.9871 107.641 23.2436 108.107 22.3045C108.574 21.3653 108.808 20.3088 108.808 19.1349C108.808 17.9609 108.574 16.9044 108.107 16.0044C107.641 15.1044 106.979 14.3609 106.162 13.8522C105.345 13.3435 104.412 13.0695 103.323 13.0695C102.272 13.0695 101.339 13.3435 100.522 13.8522C99.705 14.4 99.0826 15.1044 98.6158 16.0044C98.149 16.9044 97.9156 17.9609 97.9156 19.1349C97.9156 20.3479 98.149 21.4045 98.6158 22.3045C99.0826 23.2436 99.705 23.948 100.522 24.4958C101.339 25.0045 102.272 25.2784 103.323 25.2784Z" fill="white"/>
<path d="M115.849 27.4307V3.52163C115.849 3.09119 116.199 2.73901 116.627 2.73901H118.61C119.038 2.73901 119.388 3.09119 119.388 3.52163V27.4307C119.388 27.8611 119.038 28.2133 118.61 28.2133H116.627C116.199 28.2133 115.849 27.8611 115.849 27.4307Z" fill="white"/>
<path d="M123.006 27.4307V3.52163C123.006 3.09119 123.356 2.73901 123.784 2.73901H125.768C126.196 2.73901 126.546 3.09119 126.546 3.52163V12.9522C127.129 12.0522 127.985 11.3087 129.074 10.6826C130.164 10.0565 131.292 9.74347 132.459 9.74347C136.582 9.74347 138.605 12.2087 138.605 17.1784V27.4307C138.605 27.8611 138.255 28.2133 137.827 28.2133H135.843C135.415 28.2133 135.065 27.8611 135.065 27.4307V17.4132C135.065 14.3218 133.781 12.8348 131.253 12.9522C130.358 12.9522 129.541 13.1479 128.841 13.5392C128.141 13.9305 127.557 14.4392 127.129 15.0653C126.702 15.6914 126.507 16.4349 126.507 17.2175V27.3916C126.507 27.822 126.157 28.1742 125.729 28.1742H123.745C123.356 28.2133 123.006 27.8611 123.006 27.4307Z" fill="white"/>
<path d="M150.781 28.5656C148.913 28.5656 147.28 28.1743 145.879 27.3917C144.44 26.6091 143.351 25.5134 142.534 24.1438C141.717 22.7742 141.328 21.1698 141.328 19.409C141.328 17.4915 141.717 15.848 142.495 14.4002C143.273 12.9523 144.362 11.8567 145.762 11.0349C147.124 10.2132 148.719 9.78271 150.508 9.78271C152.064 9.82185 153.465 10.2132 154.709 10.9566C155.954 11.7001 156.927 12.7567 157.666 14.048C158.366 15.3393 158.716 16.8654 158.677 18.5481V19.2916C158.677 19.722 158.327 20.0742 157.899 20.0742H144.907C145.101 21.7177 145.762 23.009 146.891 23.9482C148.019 24.8873 149.458 25.396 151.17 25.396C152.064 25.396 152.881 25.2395 153.659 24.9656C154.243 24.7308 154.865 24.3786 155.526 23.8699C155.876 23.596 156.382 23.6742 156.654 24.0264L157.549 25.2786C157.783 25.6308 157.744 26.0612 157.394 26.3351C156.654 26.9612 155.76 27.4699 154.709 27.8613C153.348 28.2917 152.064 28.5656 150.781 28.5656ZM150.469 12.9915C147.396 12.9915 145.568 14.4002 144.946 17.1785H155.021V16.9437C154.943 16.2002 154.709 15.4958 154.282 14.9089C153.854 14.3219 153.309 13.8523 152.648 13.5002C151.986 13.148 151.247 12.9915 150.469 12.9915Z" fill="white"/>
<path d="M166.107 4.46084C165.601 3.95214 164.901 3.67822 164.007 3.67822C163.112 3.67822 162.412 3.95214 161.906 4.49997C161.4 5.04781 161.128 5.75217 161.128 6.61305C161.128 7.5522 161.361 8.25656 161.867 8.76526C162.373 9.27396 163.073 9.54788 163.968 9.54788C164.862 9.54788 165.562 9.27396 166.068 8.72613C166.574 8.17829 166.846 7.47394 166.846 6.61305C166.846 5.71304 166.574 4.96955 166.107 4.46084Z" fill="white"/>
<path d="M164.979 11.3086H162.995C162.567 11.3086 162.217 11.6608 162.217 12.0912V27.4306C162.217 27.861 162.567 28.2132 162.995 28.2132H164.979C165.407 28.2132 165.757 27.861 165.757 27.4306V12.0912C165.757 11.6608 165.407 11.3086 164.979 11.3086Z" fill="white"/>
<path d="M18.4991 1.39968L18.4991 30.3962C18.4991 31.1519 17.8869 31.7957 17.1079 31.7957H16.0784C7.17488 31.7957 0.191162 24.9104 0.191162 16.1498L0.191162 16.0099C0.191162 7.1654 7.31399 0.000231884 16.1062 0.000231884H17.1357C17.8869 0.000231884 18.4991 0.615988 18.4991 1.39968ZM13.6856 26.7017L13.6856 5.1502C8.733 6.26975 5.03246 10.72 5.03246 16.0379V16.1778C5.00464 21.3838 8.67735 25.6381 13.6856 26.7017Z" fill="#329FC0"/>
<path d="M33.1065 11.3637C35.6113 11.3637 37.6418 9.32109 37.6418 6.80145C37.6418 4.28182 35.6113 2.23926 33.1065 2.23926C30.6018 2.23926 28.5713 4.28182 28.5713 6.80145C28.5713 9.32109 30.6018 11.3637 33.1065 11.3637Z" fill="#2FBF90"/>
<path d="M19.9458 27.6532V31.1238C19.9458 31.5157 20.2797 31.8516 20.6692 31.8236C28.7937 31.4037 35.3044 24.8543 35.7496 16.6815C35.7774 16.2897 35.4435 15.9538 35.054 15.9538H31.6039C31.2422 15.9538 30.9361 16.2337 30.9083 16.5976C30.5466 22.1394 26.0948 26.6176 20.5857 26.9535C20.224 26.9815 19.9458 27.2894 19.9458 27.6532Z" fill="#FF9D00"/>
<path fill-rule="evenodd" clip-rule="evenodd" d="M22.2685 19.0955C23.522 19.0955 24.5382 18.0793 24.5382 16.8258V2.26978C24.5382 1.01629 23.522 0.000131756 22.2685 0.000131756V0.000131756C21.0151 0.000131756 19.9989 1.01629 19.9989 2.26978L19.9989 16.8258C19.9989 18.0793 21.0151 19.0955 22.2685 19.0955V19.0955Z" fill="#C82B5E"/>
<path d="M18.4991 1.39968L18.4991 30.3962C18.4991 31.1519 17.8869 31.7957 17.1079 31.7957H16.0784C7.17488 31.7957 0.191162 24.9104 0.191162 16.1498L0.191162 16.0099C0.191162 7.1654 7.31399 0.000231884 16.1062 0.000231884H17.1357C17.8869 0.000231884 18.4991 0.615988 18.4991 1.39968ZM13.6856 26.7017L13.6856 5.1502C8.733 6.26975 5.03246 10.72 5.03246 16.0379V16.1778C5.00464 21.3838 8.67735 25.6381 13.6856 26.7017Z" fill="#329FC0"/>
<path d="M33.1065 11.3637C35.6113 11.3637 37.6418 9.32109 37.6418 6.80145C37.6418 4.28182 35.6113 2.23926 33.1065 2.23926C30.6018 2.23926 28.5713 4.28182 28.5713 6.80145C28.5713 9.32109 30.6018 11.3637 33.1065 11.3637Z" fill="#2FBF90"/>
<path d="M19.9458 27.6532V31.1238C19.9458 31.5157 20.2797 31.8516 20.6692 31.8236C28.7937 31.4037 35.3044 24.8543 35.7496 16.6815C35.7774 16.2897 35.4435 15.9538 35.054 15.9538H31.6039C31.2422 15.9538 30.9361 16.2337 30.9083 16.5976C30.5466 22.1394 26.0948 26.6176 20.5857 26.9535C20.224 26.9815 19.9458 27.2894 19.9458 27.6532Z" fill="#FF9D00"/>
<path fill-rule="evenodd" clip-rule="evenodd" d="M22.2685 19.0955C23.522 19.0955 24.5382 18.0793 24.5382 16.8258V2.26978C24.5382 1.01629 23.522 0.000131756 22.2685 0.000131756V0.000131756C21.0151 0.000131756 19.9989 1.01629 19.9989 2.26978L19.9989 16.8258C19.9989 18.0793 21.0151 19.0955 22.2685 19.0955V19.0955Z" fill="#C82B5E"/>
</svg>
