<svg width="38" height="32" viewBox="0 0 38 32" fill="none" xmlns="http://www.w3.org/2000/svg">
<path d="M18.4991 1.39968L18.4991 30.3962C18.4991 31.1519 17.8869 31.7957 17.1079 31.7957H16.0784C7.17488 31.7957 0.191162 24.9104 0.191162 16.1498L0.191162 16.0099C0.191162 7.1654 7.31399 0.000231884 16.1062 0.000231884H17.1357C17.8869 0.000231884 18.4991 0.615988 18.4991 1.39968ZM13.6856 26.7017L13.6856 5.1502C8.733 6.26975 5.03246 10.72 5.03246 16.0379V16.1778C5.00464 21.3838 8.67735 25.6381 13.6856 26.7017Z" fill="#329FC0"/>
<path d="M33.1065 11.3637C35.6113 11.3637 37.6418 9.32109 37.6418 6.80145C37.6418 4.28182 35.6113 2.23926 33.1065 2.23926C30.6018 2.23926 28.5713 4.28182 28.5713 6.80145C28.5713 9.32109 30.6018 11.3637 33.1065 11.3637Z" fill="#2FBF90"/>
<path d="M19.9458 27.6532V31.1238C19.9458 31.5157 20.2797 31.8516 20.6692 31.8236C28.7937 31.4037 35.3044 24.8543 35.7496 16.6815C35.7774 16.2897 35.4435 15.9538 35.054 15.9538H31.6039C31.2422 15.9538 30.9361 16.2337 30.9083 16.5976C30.5466 22.1394 26.0948 26.6176 20.5857 26.9535C20.224 26.9815 19.9458 27.2894 19.9458 27.6532Z" fill="#FF9D00"/>
<path fill-rule="evenodd" clip-rule="evenodd" d="M22.2685 19.0955C23.522 19.0955 24.5382 18.0793 24.5382 16.8258V2.26978C24.5382 1.01629 23.522 0.000131756 22.2685 0.000131756V0.000131756C21.0151 0.000131756 19.9989 1.01629 19.9989 2.26978L19.9989 16.8258C19.9989 18.0793 21.0151 19.0955 22.2685 19.0955V19.0955Z" fill="#C82B5E"/>
</svg>
