<svg width="17" height="82" viewBox="0 0 17 82" fill="none" xmlns="http://www.w3.org/2000/svg">
<mask id="path-1-inside-1_1252_32036" fill="white">
<path fill-rule="evenodd" clip-rule="evenodd" d="M1 0.5C1 0.223858 0.776142 0 0.5 0C0.223858 0 0 0.223858 0 0.5L3.51877e-06 80.5C3.53084e-06 80.7761 0.223861 81 0.500004 81C0.223858 81 0 81.2239 0 81.5C0 81.7761 0.223858 82 0.5 82H16.5C16.7761 82 17 81.7761 17 81.5C17 81.2239 16.7761 81 16.5 81H0.500004C0.776146 81 1 80.7761 1 80.5L1 0.5Z"/>
</mask>
<path d="M1 0.5H0.5V0.5L1 0.5ZM0 0.5H-0.5H0ZM3.51877e-06 80.5H0.500004H3.51877e-06ZM1 80.5H1.5H1ZM0.500135 80.5002C0.245055 80.3944 -0.0474777 80.5155 -0.153254 80.7705C-0.259031 81.0256 -0.137996 81.3181 0.117084 81.4239L0.500135 80.5002ZM-0.42392 80.8829C-0.318144 81.138 -0.0256118 81.259 0.229469 81.1533C0.484549 81.0475 0.605583 80.755 0.499807 80.4999L-0.42392 80.8829ZM0.500003 76.5C0.500003 76.2239 0.276146 76 3.32084e-06 76C-0.276139 76 -0.499997 76.2239 -0.499997 76.5H0.500003ZM-0.499997 68.5C-0.499997 68.7761 -0.276139 69 3.01294e-06 69C0.276145 69 0.500003 68.7761 0.500003 68.5H-0.499997ZM0.500003 60.5C0.500003 60.2239 0.276145 60 2.61708e-06 60C-0.27614 60 -0.499997 60.2239 -0.499997 60.5H0.500003ZM-0.499998 52.5C-0.499998 52.7761 -0.27614 53 2.30919e-06 53C0.276145 53 0.500002 52.7761 0.500002 52.5H-0.499998ZM0.500002 44.5C0.500002 44.2239 0.276144 44 1.91333e-06 44C-0.27614 44 -0.499998 44.2239 -0.499998 44.5H0.500002ZM-0.499998 36.5C-0.499998 36.7761 -0.276141 37 1.60544e-06 37C0.276144 37 0.500002 36.7761 0.500002 36.5H-0.499998ZM0.500001 28.5C0.500001 28.2239 0.276144 28 1.20958e-06 28C-0.276141 28 -0.499999 28.2239 -0.499999 28.5H0.500001ZM-0.499999 20.5C-0.499999 20.7761 -0.276141 21 9.01684e-07 21C0.276143 21 0.500001 20.7761 0.500001 20.5H-0.499999ZM0.500001 12.5C0.500001 12.2239 0.276143 12 5.05823e-07 12C-0.276142 12 -0.499999 12.2239 -0.499999 12.5H0.500001ZM-0.5 4.5C-0.5 4.77614 -0.276142 5 1.97931e-07 5C0.276143 5 0.5 4.77614 0.5 4.5H-0.5ZM0.499803 0.500133C0.605581 0.245053 0.484547 -0.0474795 0.229467 -0.153257C-0.0256127 -0.259034 -0.318145 -0.138001 -0.423923 0.117079L0.499803 0.500133ZM0.117079 -0.423923C-0.138001 -0.318145 -0.259034 -0.0256127 -0.153257 0.229467C-0.0474795 0.484547 0.245053 0.605581 0.500133 0.499803L0.117079 -0.423923ZM0.499867 0.499803C0.754947 0.605581 1.04748 0.484547 1.15326 0.229467C1.25903 -0.0256127 1.138 -0.318145 0.882921 -0.423923L0.499867 0.499803ZM1.42392 0.117079C1.31815 -0.138001 1.02561 -0.259034 0.770533 -0.153257C0.515453 -0.0474795 0.394419 0.245053 0.500197 0.500133L1.42392 0.117079ZM0.5 4.5C0.5 4.77614 0.723858 5 1 5C1.27614 5 1.5 4.77614 1.5 4.5H0.5ZM1.5 12.5C1.5 12.2239 1.27614 12 1 12C0.723858 12 0.500001 12.2239 0.500001 12.5H1.5ZM0.500001 20.5C0.500001 20.7761 0.723859 21 1 21C1.27614 21 1.5 20.7761 1.5 20.5H0.500001ZM1.5 28.5C1.5 28.2239 1.27614 28 1 28C0.723859 28 0.500001 28.2239 0.500001 28.5H1.5ZM0.500002 36.5C0.500002 36.7761 0.723859 37 1 37C1.27614 37 1.5 36.7761 1.5 36.5H0.500002ZM1.5 44.5C1.5 44.2239 1.27614 44 1 44C0.72386 44 0.500002 44.2239 0.500002 44.5H1.5ZM0.500002 52.5C0.500002 52.7761 0.72386 53 1 53C1.27614 53 1.5 52.7761 1.5 52.5L0.500002 52.5ZM1.5 60.5C1.5 60.2239 1.27614 60 1 60C0.72386 60 0.500003 60.2239 0.500003 60.5H1.5ZM0.500003 68.5C0.500003 68.7761 0.723861 69 1 69C1.27615 69 1.5 68.7761 1.5 68.5H0.500003ZM1.5 76.5C1.5 76.2239 1.27615 76 1 76C0.723861 76 0.500003 76.2239 0.500003 76.5H1.5ZM0.5002 80.4999C0.394424 80.755 0.515458 81.0475 0.770538 81.1533C1.02562 81.259 1.31815 81.138 1.42393 80.8829L0.5002 80.4999ZM0.882923 81.4239C1.138 81.3181 1.25904 81.0256 1.15326 80.7705C1.04748 80.5155 0.754953 80.3944 0.499872 80.5002L0.882923 81.4239ZM0.117085 80.5761C-0.137996 80.6818 -0.259032 80.9744 -0.153256 81.2295C-0.0474809 81.4845 0.245051 81.6056 0.500131 81.4998L0.117085 80.5761ZM0.499803 81.5001C0.60558 81.245 0.484547 80.9525 0.229467 80.8467C-0.0256135 80.741 -0.318146 80.862 -0.423923 81.1171L0.499803 81.5001ZM-0.423924 81.8829C-0.318147 82.138 -0.0256151 82.259 0.229465 82.1533C0.484545 82.0475 0.60558 81.755 0.499803 81.4999L-0.423924 81.8829ZM0.500131 81.5002C0.245051 81.3944 -0.0474811 81.5155 -0.153258 81.7705C-0.259034 82.0256 -0.138 82.3181 0.11708 82.4239L0.500131 81.5002ZM4.5 82.5C4.77614 82.5 5 82.2761 5 82C5 81.7239 4.77614 81.5 4.5 81.5V82.5ZM12.5 81.5C12.2239 81.5 12 81.7239 12 82C12 82.2761 12.2239 82.5 12.5 82.5V81.5ZM16.8829 82.4239C17.138 82.3181 17.259 82.0256 17.1533 81.7705C17.0475 81.5155 16.7549 81.3944 16.4999 81.5002L16.8829 82.4239ZM16.5002 81.4999C16.3944 81.755 16.5155 82.0475 16.7705 82.1533C17.0256 82.259 17.3181 82.138 17.4239 81.8829L16.5002 81.4999ZM17.4239 81.1171C17.3181 80.862 17.0256 80.741 16.7705 80.8467C16.5155 80.9525 16.3944 81.245 16.5002 81.5001L17.4239 81.1171ZM16.4999 81.4998C16.7549 81.6056 17.0475 81.4845 17.1533 81.2295C17.259 80.9744 17.138 80.6819 16.8829 80.5761L16.4999 81.4998ZM12.5 80.5C12.2239 80.5 12 80.7239 12 81C12 81.2761 12.2239 81.5 12.5 81.5V80.5ZM4.5 81.5C4.77614 81.5 5 81.2761 5 81C5 80.7239 4.77614 80.5 4.5 80.5V81.5ZM0.500004 80.5L0.500135 80.5002L0.117084 81.4239C0.235685 81.4731 0.365334 81.5 0.500004 81.5V80.5ZM0.499807 80.4999L0.500004 80.5H-0.499996C-0.499996 80.6347 -0.473102 80.7643 -0.42392 80.8829L0.499807 80.4999ZM0.500004 80.5L0.500003 76.5H-0.499997L-0.499996 80.5H0.500004ZM0.500003 68.5L0.500003 60.5H-0.499997L-0.499997 68.5H0.500003ZM0.500002 52.5L0.500002 44.5H-0.499998L-0.499998 52.5H0.500002ZM0.500002 36.5L0.500001 28.5H-0.499999L-0.499998 36.5H0.500002ZM0.500001 20.5L0.500001 12.5H-0.499999L-0.499999 20.5H0.500001ZM0.5 4.5L0.5 0.5L-0.5 0.5L-0.5 4.5H0.5ZM0.5 0.5L0.499803 0.500133L-0.423923 0.117079C-0.473105 0.23568 -0.5 0.36533 -0.5 0.5H0.5ZM0.500133 0.499803L0.5 0.5V-0.5C0.36533 -0.5 0.235681 -0.473105 0.117079 -0.423923L0.500133 0.499803ZM0.5 0.5L0.499867 0.499803L0.882921 -0.423923C0.76432 -0.473105 0.63467 -0.5 0.5 -0.5V0.5ZM0.500197 0.500133L0.5 0.5H1.5C1.5 0.36533 1.4731 0.235681 1.42392 0.117079L0.500197 0.500133ZM0.5 0.5L0.5 4.5H1.5L1.5 0.5L0.5 0.5ZM0.500001 12.5L0.500001 20.5H1.5L1.5 12.5H0.500001ZM0.500001 28.5L0.500002 36.5H1.5L1.5 28.5H0.500001ZM0.500002 44.5L0.500002 52.5L1.5 52.5L1.5 44.5H0.500002ZM0.500003 60.5L0.500003 68.5H1.5L1.5 60.5H0.500003ZM0.500003 76.5L0.500004 80.5H1.5L1.5 76.5H0.500003ZM0.500004 80.5L0.5002 80.4999L1.42393 80.8829C1.47311 80.7643 1.5 80.6347 1.5 80.5H0.500004ZM0.499872 80.5002L0.500004 80.5V81.5C0.634673 81.5 0.764322 81.4731 0.882923 81.4239L0.499872 80.5002ZM0.500004 80.5C0.365335 80.5 0.235687 80.5269 0.117085 80.5761L0.500131 81.4998L0.500004 81.5V80.5ZM-0.423923 81.1171C-0.473105 81.2357 -0.5 81.3653 -0.5 81.5H0.5L0.499803 81.5001L-0.423923 81.1171ZM-0.5 81.5C-0.5 81.6347 -0.473105 81.7643 -0.423924 81.8829L0.499803 81.4999L0.5 81.5H-0.5ZM0.11708 82.4239C0.235682 82.4731 0.365331 82.5 0.5 82.5V81.5L0.500131 81.5002L0.11708 82.4239ZM0.5 82.5H4.5V81.5H0.5V82.5ZM12.5 82.5H16.5V81.5H12.5V82.5ZM16.5 82.5C16.6347 82.5 16.7643 82.4731 16.8829 82.4239L16.4999 81.5002L16.5 81.5V82.5ZM17.4239 81.8829C17.4731 81.7643 17.5 81.6347 17.5 81.5H16.5L16.5002 81.4999L17.4239 81.8829ZM17.5 81.5C17.5 81.3653 17.4731 81.2357 17.4239 81.1171L16.5002 81.5001L16.5 81.5H17.5ZM16.8829 80.5761C16.7643 80.5269 16.6347 80.5 16.5 80.5V81.5L16.4999 81.4998L16.8829 80.5761ZM16.5 80.5H12.5V81.5H16.5V80.5ZM4.5 80.5H0.500004V81.5H4.5V80.5ZM1 0.5H0L0 0.5L1 0.5ZM0 0.5H-1V0.5L0 0.5ZM3.51877e-06 80.5H1H3.51877e-06ZM1 80.5H2H1ZM0.69166 80.0383C0.1815 79.8268 -0.403565 80.0688 -0.615118 80.579C-0.826671 81.0892 -0.584602 81.6742 -0.0744416 81.8858L0.69166 80.0383ZM-0.885784 81.0744C-0.674231 81.5846 -0.0891668 81.8267 0.420994 81.6151C0.931154 81.4036 1.17322 80.8185 0.961671 80.3083L-0.885784 81.0744ZM1 76.5C1 75.9477 0.552288 75.5 3.29884e-06 75.5C-0.552281 75.5 -0.999997 75.9477 -0.999997 76.5H1ZM-0.999997 68.5C-0.999997 69.0523 -0.552282 69.5 3.03494e-06 69.5C0.552288 69.5 1 69.0523 1 68.5H-0.999997ZM1 60.5C1 59.9477 0.552287 59.5 2.59509e-06 59.5C-0.552282 59.5 -0.999997 59.9477 -0.999997 60.5H1ZM-0.999998 52.5C-0.999998 53.0523 -0.552282 53.5 2.33118e-06 53.5C0.552287 53.5 1 53.0523 1 52.5H-0.999998ZM1 44.5C1 43.9477 0.552287 43.5 1.89134e-06 43.5C-0.552283 43.5 -0.999998 43.9477 -0.999998 44.5H1ZM-0.999998 36.5C-0.999998 37.0523 -0.552283 37.5 1.62743e-06 37.5C0.552286 37.5 1 37.0523 1 36.5H-0.999998ZM1 28.5C1 27.9477 0.552286 27.5 1.18758e-06 27.5C-0.552284 27.5 -0.999999 27.9477 -0.999999 28.5H1ZM-0.999999 20.5C-0.999999 21.0523 -0.552284 21.5 9.23676e-07 21.5C0.552286 21.5 1 21.0523 1 20.5H-0.999999ZM1 12.5C1 11.9477 0.552285 11.5 4.8383e-07 11.5C-0.552284 11.5 -1 11.9477 -0.999999 12.5H1ZM-1 4.5C-1 5.05229 -0.552285 5.5 2.19923e-07 5.5C0.552285 5.5 1 5.05229 1 4.5H-1ZM0.961666 0.69166C1.17322 0.1815 0.931154 -0.403565 0.420994 -0.61512C-0.0891656 -0.826675 -0.674231 -0.584608 -0.885786 -0.0744479L0.961666 0.69166ZM-0.0744477 -0.885786C-0.584607 -0.674231 -0.826675 -0.0891657 -0.61512 0.420994C-0.403565 0.931154 0.1815 1.17322 0.69166 0.961666L-0.0744477 -0.885786ZM0.30834 0.961666C0.8185 1.17322 1.40357 0.931154 1.61512 0.420994C1.82667 -0.0891656 1.58461 -0.674231 1.07445 -0.885786L0.30834 0.961666ZM1.88579 -0.0744478C1.67423 -0.584608 1.08917 -0.826675 0.579006 -0.61512C0.0688461 -0.403565 -0.173221 0.1815 0.0383337 0.69166L1.88579 -0.0744478ZM1.78814e-07 4.5C2.03503e-07 5.05228 0.447715 5.5 1 5.5C1.55228 5.5 2 5.05228 2 4.5H1.78814e-07ZM2 12.5C2 11.9477 1.55229 11.5 1 11.5C0.447716 11.5 5.11753e-07 11.9477 5.36442e-07 12.5L2 12.5ZM8.9407e-07 20.5C9.18759e-07 21.0523 0.447716 21.5 1 21.5C1.55229 21.5 2 21.0523 2 20.5H8.9407e-07ZM2 28.5C2 27.9477 1.55229 27.5 1 27.5C0.447716 27.5 1.22701e-06 27.9477 1.2517e-06 28.5H2ZM1.60933e-06 36.5C1.63401e-06 37.0523 0.447717 37.5 1 37.5C1.55229 37.5 2 37.0523 2 36.5H1.60933e-06ZM2 44.5C2 43.9477 1.55229 43.5 1 43.5C0.447717 43.5 1.94226e-06 43.9477 1.96695e-06 44.5H2ZM2.32458e-06 52.5C2.34927e-06 53.0523 0.447718 53.5 1 53.5C1.55229 53.5 2 53.0523 2 52.5L2.32458e-06 52.5ZM2 60.5C2 59.9477 1.55229 59.5 1 59.5C0.447718 59.5 2.65752e-06 59.9477 2.68221e-06 60.5H2ZM3.03984e-06 68.5C3.06453e-06 69.0523 0.447718 69.5 1 69.5C1.55229 69.5 2 69.0523 2 68.5H3.03984e-06ZM2 76.5C2 75.9477 1.55229 75.5 1 75.5C0.447719 75.5 3.37278e-06 75.9477 3.39746e-06 76.5H2ZM0.0383365 80.3083C-0.173217 80.8185 0.0688526 81.4036 0.579013 81.6151C1.08917 81.8267 1.67424 81.5846 1.88579 81.0744L0.0383365 80.3083ZM1.07445 81.8858C1.58461 81.6742 1.82668 81.0892 1.61512 80.579C1.40357 80.0688 0.818507 79.8268 0.308347 80.0383L1.07445 81.8858ZM-0.0744379 80.1142C-0.584599 80.3258 -0.826671 80.9108 -0.615121 81.421C-0.40357 81.9311 0.181493 82.1732 0.691655 81.9617L-0.0744379 80.1142ZM0.961667 81.6917C1.17322 81.1815 0.931153 80.5964 0.420993 80.3849C-0.0891671 80.1733 -0.674232 80.4154 -0.885786 80.9256L0.961667 81.6917ZM-0.885787 82.0744C-0.674234 82.5846 -0.0891699 82.8267 0.420991 82.6151C0.931151 82.4036 1.17322 81.8185 0.961667 81.3083L-0.885787 82.0744ZM0.691657 81.0383C0.181497 80.8268 -0.403568 81.0688 -0.615121 81.579C-0.826675 82.0892 -0.584606 82.6742 -0.0744453 82.8858L0.691657 81.0383ZM4.5 83C5.05228 83 5.5 82.5523 5.5 82C5.5 81.4477 5.05228 81 4.5 81V83ZM12.5 81C11.9477 81 11.5 81.4477 11.5 82C11.5 82.5523 11.9477 83 12.5 83V81ZM17.0744 82.8858C17.5846 82.6742 17.8267 82.0892 17.6151 81.579C17.4036 81.0688 16.8185 80.8268 16.3083 81.0383L17.0744 82.8858ZM16.0383 81.3083C15.8268 81.8185 16.0688 82.4036 16.579 82.6151C17.0892 82.8267 17.6742 82.5846 17.8858 82.0744L16.0383 81.3083ZM17.8858 80.9256C17.6742 80.4154 17.0892 80.1733 16.579 80.3849C16.0688 80.5964 15.8268 81.1815 16.0383 81.6917L17.8858 80.9256ZM16.3083 81.9617C16.8185 82.1732 17.4036 81.9312 17.6151 81.421C17.8267 80.9108 17.5846 80.3258 17.0744 80.1142L16.3083 81.9617ZM12.5 80C11.9477 80 11.5 80.4477 11.5 81C11.5 81.5523 11.9477 82 12.5 82V80ZM4.5 82C5.05229 82 5.5 81.5523 5.5 81C5.5 80.4477 5.05229 80 4.5 80V82ZM0.500004 80C0.565954 80 0.631319 80.0133 0.69166 80.0383L-0.0744416 81.8858C0.103807 81.9597 0.298461 82 0.500004 82V80ZM0.961671 80.3083C0.986693 80.3687 1 80.4341 1 80.5H-0.999996C-0.999996 80.7015 -0.9597 80.8962 -0.885784 81.0744L0.961671 80.3083ZM1 80.5L1 76.5H-0.999997L-0.999996 80.5H1ZM1 68.5L1 60.5H-0.999997L-0.999997 68.5H1ZM1 52.5L1 44.5H-0.999998L-0.999998 52.5H1ZM1 36.5L1 28.5H-0.999999L-0.999998 36.5H1ZM1 20.5L1 12.5H-0.999999L-0.999999 20.5H1ZM1 4.5L1 0.5L-1 0.5L-1 4.5H1ZM1 0.5C1 0.565953 0.986689 0.631319 0.961666 0.69166L-0.885786 -0.0744479C-0.959703 0.103801 -1 0.298456 -1 0.5H1ZM0.69166 0.961666C0.631319 0.986689 0.565953 1 0.5 1V-1C0.298456 -1 0.103801 -0.959703 -0.0744477 -0.885786L0.69166 0.961666ZM0.5 1C0.434047 1 0.368681 0.986689 0.30834 0.961666L1.07445 -0.885786C0.896199 -0.959703 0.701544 -1 0.5 -1V1ZM0.0383337 0.69166C0.0133113 0.631319 0 0.565953 0 0.5H2C2 0.298456 1.9597 0.103801 1.88579 -0.0744478L0.0383337 0.69166ZM0 0.5L1.78814e-07 4.5H2L2 0.5L0 0.5ZM5.36442e-07 12.5L8.9407e-07 20.5H2L2 12.5L5.36442e-07 12.5ZM1.2517e-06 28.5L1.60933e-06 36.5H2L2 28.5H1.2517e-06ZM1.96695e-06 44.5L2.32458e-06 52.5L2 52.5L2 44.5H1.96695e-06ZM2.68221e-06 60.5L3.03984e-06 68.5H2L2 60.5H2.68221e-06ZM3.39746e-06 76.5L3.57628e-06 80.5H2L2 76.5H3.39746e-06ZM3.57628e-06 80.5C3.57628e-06 80.4341 0.013314 80.3687 0.0383365 80.3083L1.88579 81.0744C1.95971 80.8962 2 80.7015 2 80.5H3.57628e-06ZM0.308347 80.0383C0.368688 80.0133 0.434053 80 0.500004 80V82C0.701546 82 0.8962 81.9597 1.07445 81.8858L0.308347 80.0383ZM0.500004 80C0.298463 80 0.103811 80.0403 -0.0744379 80.1142L0.691655 81.9617C0.631314 81.9867 0.565952 82 0.500004 82V80ZM-0.885786 80.9256C-0.959703 81.1038 -1 81.2985 -1 81.5H1C1 81.5659 0.986689 81.6313 0.961667 81.6917L-0.885786 80.9256ZM-1 81.5C-1 81.7015 -0.959704 81.8962 -0.885787 82.0744L0.961667 81.3083C0.98669 81.3687 1 81.4341 1 81.5H-1ZM-0.0744453 82.8858C0.103804 82.9597 0.298457 83 0.5 83V81C0.565951 81 0.631316 81.0133 0.691657 81.0383L-0.0744453 82.8858ZM0.5 83H4.5V81H0.5V83ZM12.5 83H16.5V81H12.5V83ZM16.5 83C16.7015 83 16.8962 82.9597 17.0744 82.8858L16.3083 81.0383C16.3687 81.0133 16.434 81 16.5 81V83ZM17.8858 82.0744C17.9597 81.8962 18 81.7015 18 81.5H16C16 81.4341 16.0133 81.3687 16.0383 81.3083L17.8858 82.0744ZM18 81.5C18 81.2985 17.9597 81.1038 17.8858 80.9256L16.0383 81.6917C16.0133 81.6313 16 81.5659 16 81.5H18ZM17.0744 80.1142C16.8962 80.0403 16.7015 80 16.5 80V82C16.434 82 16.3687 81.9867 16.3083 81.9617L17.0744 80.1142ZM16.5 80H12.5V82H16.5V80ZM4.5 80H0.500004V82H4.5V80Z" fill="#8A94A6" mask="url(#path-1-inside-1_1252_32036)"/>
</svg>
