<svg width="21" height="20" viewBox="0 0 21 20" fill="none" xmlns="http://www.w3.org/2000/svg">
<path d="M5.44248 16.2924L0.989014 19.8162V1.19039C0.989014 0.923373 1.09433 0.66729 1.28181 0.478478C1.46928 0.289667 1.72355 0.183594 1.98867 0.183594H19.9825C20.2476 0.183594 20.5019 0.289667 20.6894 0.478478C20.8768 0.66729 20.9822 0.923373 20.9822 1.19039V15.2856C20.9822 15.5526 20.8768 15.8087 20.6894 15.9975C20.5019 16.1863 20.2476 16.2924 19.9825 16.2924H5.44248ZM9.98593 11.2584V13.272H11.9852V11.2584H9.98593ZM7.55376 6.03612L9.51509 6.43179C9.57075 6.15133 9.70434 5.89255 9.90032 5.68556C10.0963 5.47858 10.3466 5.3319 10.6221 5.2626C10.8976 5.19329 11.187 5.20421 11.4566 5.29407C11.7262 5.38394 11.965 5.54906 12.145 5.77023C12.3251 5.9914 12.4391 6.25951 12.4738 6.54338C12.5084 6.82725 12.4624 7.1152 12.3409 7.37373C12.2194 7.63226 12.0276 7.85073 11.7876 8.00373C11.5477 8.15673 11.2696 8.23797 10.9856 8.23798H9.98593V10.2516H10.9856C11.6481 10.2514 12.297 10.0617 12.8567 9.70465C13.4164 9.3476 13.8639 8.83782 14.1473 8.23463C14.4306 7.63144 14.538 6.95963 14.4571 6.29736C14.3762 5.63508 14.1102 5.00955 13.6901 4.49355C13.27 3.97755 12.7131 3.59228 12.0841 3.38256C11.4552 3.17284 10.78 3.14729 10.1372 3.30888C9.49438 3.47047 8.91032 3.81257 8.45298 4.29536C7.99564 4.77816 7.68381 5.38182 7.55376 6.03612Z" fill="white"/>
</svg>
