<svg width="23" height="21" viewBox="0 0 23 21" fill="none" xmlns="http://www.w3.org/2000/svg">
<path d="M16.398 16.8954L13.6672 20.3332L10.9365 16.8954H5.86502C5.60636 16.8954 5.3583 16.7919 5.1754 16.6077C4.9925 16.4235 4.88975 16.1737 4.88975 15.9131V5.20965C4.88975 4.94914 4.9925 4.69931 5.1754 4.5151C5.3583 4.33089 5.60636 4.22741 5.86502 4.22741H21.4694C21.7281 4.22741 21.9761 4.33089 22.159 4.5151C22.3419 4.69931 22.4447 4.94914 22.4447 5.20965V15.9131C22.4447 16.1737 22.3419 16.4235 22.159 16.6077C21.9761 16.7919 21.7281 16.8954 21.4694 16.8954H16.398ZM1.96392 0.197266H18.5436V2.16175H2.9392V12.9664H0.988647V1.17951C0.988647 0.919001 1.0914 0.669164 1.2743 0.484958C1.4572 0.300752 1.70526 0.197266 1.96392 0.197266Z" fill="white"/>
</svg>
