<svg width="21" height="24" viewBox="0 0 21 24" fill="none" xmlns="http://www.w3.org/2000/svg">
<path d="M9.33204 13.8321V22.2354H0.988342C0.988342 20.0068 1.86741 17.8693 3.43215 16.2934C4.9969 14.7175 7.11915 13.8321 9.33204 13.8321ZM15.5898 21.7102L12.5245 23.3331L13.1096 19.8962L10.6305 17.4613L14.0577 16.9592L15.5898 13.8321L17.123 16.9592L20.5491 17.4613L18.07 19.8962L18.654 23.3331L15.5898 21.7102ZM9.33204 12.7817C5.87462 12.7817 3.07427 9.96136 3.07427 6.47924C3.07427 2.99712 5.87462 0.176758 9.33204 0.176758C12.7895 0.176758 15.5898 2.99712 15.5898 6.47924C15.5898 9.96136 12.7895 12.7817 9.33204 12.7817Z" fill="white"/>
</svg>
