<svg width="32" height="32" viewBox="0 0 32 32" fill="none" xmlns="http://www.w3.org/2000/svg">
<path d="M2.66602 2.66602H4.98602C6.42602 2.66602 7.55935 3.90602 7.43935 5.33268L6.33268 18.6127C6.14602 20.786 7.86601 22.6527 10.0527 22.6527H24.2527C26.1727 22.6527 27.8527 21.0794 27.9993 19.1727L28.7193 9.17269C28.8793 6.95936 27.1993 5.15934 24.9727 5.15934H7.75936" stroke="#2FBF90" stroke-width="1.5" stroke-miterlimit="10" stroke-linecap="round" stroke-linejoin="round"/>
<path d="M21.6667 29.3333C22.5871 29.3333 23.3333 28.5871 23.3333 27.6667C23.3333 26.7462 22.5871 26 21.6667 26C20.7462 26 20 26.7462 20 27.6667C20 28.5871 20.7462 29.3333 21.6667 29.3333Z" stroke="#2FBF90" stroke-width="1.5" stroke-miterlimit="10" stroke-linecap="round" stroke-linejoin="round"/>
<path d="M11.0007 29.3333C11.9211 29.3333 12.6673 28.5871 12.6673 27.6667C12.6673 26.7462 11.9211 26 11.0007 26C10.0802 26 9.33398 26.7462 9.33398 27.6667C9.33398 28.5871 10.0802 29.3333 11.0007 29.3333Z" stroke="#2FBF90" stroke-width="1.5" stroke-miterlimit="10" stroke-linecap="round" stroke-linejoin="round"/>
<path d="M12 10.666H28" stroke="#2FBF90" stroke-width="1.5" stroke-miterlimit="10" stroke-linecap="round" stroke-linejoin="round"/>
</svg>
