<svg width="32" height="32" viewBox="0 0 32 32" fill="none" xmlns="http://www.w3.org/2000/svg">
<rect width="32" height="32" rx="8" fill="#F7F7F7"/>
<path d="M14.9799 10.19L11.2699 6.48C11.1999 6.41 11.1099 6.35 11.0099 6.31C10.9999 6.31 10.9899 6.31 10.9799 6.3C10.8999 6.27 10.8199 6.25 10.7299 6.25C10.5299 6.25 10.3399 6.33 10.1999 6.47L6.46994 10.19C6.17994 10.48 6.17994 10.96 6.46994 11.25C6.75994 11.54 7.23994 11.54 7.52994 11.25L9.97994 8.8V25C9.97994 25.41 10.3199 25.75 10.7299 25.75C11.1399 25.75 11.4799 25.41 11.4799 25V8.81L13.9199 11.25C14.0699 11.4 14.2599 11.47 14.4499 11.47C14.6399 11.47 14.8299 11.4 14.9799 11.25C15.2699 10.96 15.2699 10.49 14.9799 10.19Z" fill="#292D32"/>
<path d="M25.53 20.75C25.24 20.46 24.76 20.46 24.47 20.75L22.02 23.2V7C22.02 6.59 21.68 6.25 21.27 6.25C20.86 6.25 20.52 6.59 20.52 7V23.19L18.08 20.75C17.79 20.46 17.31 20.46 17.02 20.75C16.73 21.04 16.73 21.52 17.02 21.81L20.73 25.52C20.8 25.59 20.89 25.65 20.99 25.69C21 25.69 21.01 25.69 21.02 25.7C21.1 25.73 21.19 25.75 21.28 25.75C21.48 25.75 21.67 25.67 21.81 25.53L25.53 21.81C25.82 21.51 25.82 21.04 25.53 20.75Z" fill="#292D32"/>
</svg>
