<svg width="32" height="32" viewBox="0 0 32 32" fill="none" xmlns="http://www.w3.org/2000/svg">
<rect width="32" height="32" rx="8" fill="#F7F7F7"/>
<path d="M25.3 11.5797H19.72C19.33 11.5797 19.02 11.2697 19.02 10.8797C19.02 10.4897 19.33 10.1797 19.72 10.1797H25.3C25.69 10.1797 26 10.4897 26 10.8797C26 11.2697 25.69 11.5797 25.3 11.5797Z" fill="#292D32"/>
<path d="M10.42 11.5797H6.7C6.31 11.5797 6 11.2697 6 10.8797C6 10.4897 6.31 10.1797 6.7 10.1797H10.42C10.81 10.1797 11.12 10.4897 11.12 10.8797C11.12 11.2697 10.8 11.5797 10.42 11.5797Z" fill="#292D32"/>
<path d="M14.1399 14.8297C16.3215 14.8297 18.0899 13.0612 18.0899 10.8797C18.0899 8.69816 16.3215 6.92969 14.1399 6.92969C11.9584 6.92969 10.1899 8.69816 10.1899 10.8797C10.1899 13.0612 11.9584 14.8297 14.1399 14.8297Z" fill="#292D32"/>
<path d="M25.2999 21.8102H21.5799C21.1899 21.8102 20.8799 21.5002 20.8799 21.1102C20.8799 20.7202 21.1899 20.4102 21.5799 20.4102H25.2999C25.6899 20.4102 25.9999 20.7202 25.9999 21.1102C25.9999 21.5002 25.6899 21.8102 25.2999 21.8102Z" fill="#292D32"/>
<path d="M12.28 21.8102H6.7C6.31 21.8102 6 21.5002 6 21.1102C6 20.7202 6.31 20.4102 6.7 20.4102H12.28C12.67 20.4102 12.98 20.7202 12.98 21.1102C12.98 21.5002 12.66 21.8102 12.28 21.8102Z" fill="#292D32"/>
<path d="M17.8599 25.0699C20.0414 25.0699 21.8099 23.3014 21.8099 21.1199C21.8099 18.9384 20.0414 17.1699 17.8599 17.1699C15.6784 17.1699 13.9099 18.9384 13.9099 21.1199C13.9099 23.3014 15.6784 25.0699 17.8599 25.0699Z" fill="#292D32"/>
</svg>
