<svg width="36" height="36" viewBox="0 0 36 36" fill="none" xmlns="http://www.w3.org/2000/svg">
<path opacity="0.4" d="M18 3C9.71573 3 3 9.71573 3 18C3 26.2843 9.71573 33 18 33C26.2843 33 33 26.2843 33 18C33 9.71573 26.2843 3 18 3Z" fill="#737373"/>
<path d="M19.8905 11.5798C20.1755 11.5798 20.4605 11.6848 20.6855 11.9098C21.1205 12.3448 21.1205 13.0648 20.6855 13.4998L16.1855 17.9998L20.6855 22.4998C21.1205 22.9348 21.1205 23.6548 20.6855 24.0898C20.2505 24.5248 19.5305 24.5248 19.0955 24.0898L13.8005 18.7948C13.3655 18.3598 13.3655 17.6398 13.8005 17.2048L19.0955 11.9098C19.3205 11.6848 19.6055 11.5798 19.8905 11.5798Z" fill="#737373"/>
</svg>
