<svg width="36" height="36" viewBox="0 0 36 36" fill="none" xmlns="http://www.w3.org/2000/svg">
<path opacity="0.4" d="M18 33C26.2843 33 33 26.2843 33 18C33 9.71573 26.2843 3 18 3C9.71573 3 3 9.71573 3 18C3 26.2843 9.71573 33 18 33Z" fill="#737373"/>
<path d="M16.1095 24.4202C15.8245 24.4202 15.5395 24.3152 15.3145 24.0902C14.8795 23.6552 14.8795 22.9352 15.3145 22.5002L19.8145 18.0002L15.3145 13.5002C14.8795 13.0652 14.8795 12.3452 15.3145 11.9102C15.7495 11.4752 16.4695 11.4752 16.9045 11.9102L22.1995 17.2052C22.6345 17.6402 22.6345 18.3602 22.1995 18.7952L16.9045 24.0902C16.6795 24.3152 16.3945 24.4202 16.1095 24.4202Z" fill="#737373"/>
</svg>
