<svg width="18" height="19" viewBox="0 0 18 19" fill="none" xmlns="http://www.w3.org/2000/svg">
<path d="M17.8425 7.81838C17.9462 8.36325 18 8.92579 18 9.49997C18 10.1446 17.9325 10.7726 17.8034 11.3793C16.9396 15.4478 13.3259 18.5 9.00003 18.5C5.57229 18.5 2.59243 16.5845 1.07227 13.7652C0.388379 12.4954 0 11.0436 0 9.49997C0 4.52939 4.02946 0.5 8.99997 0.5C11.1835 0.5 13.186 1.27772 14.7442 2.57195L11.8291 4.95893C11.0084 4.44632 10.0389 4.14991 8.99997 4.14991C6.65415 4.14991 4.66041 5.66035 3.93844 7.76168C3.75161 8.30654 3.64991 8.89155 3.64991 9.50004C3.64991 10.1604 3.76928 10.7933 3.98932 11.3773C4.74944 13.4063 6.70592 14.8502 8.99997 14.8502C9.98608 14.8502 10.9095 14.5841 11.702 14.1185C12.7546 13.5012 13.5773 12.5356 14.0107 11.3793H9.19761V7.81845H14.0801H17.8426V7.81838H17.8425Z" fill="white"/>
</svg>
