<svg width="18" height="18" viewBox="0 0 18 18" fill="none" xmlns="http://www.w3.org/2000/svg">
<path d="M18 2.13092C17.3379 2.49218 16.6257 2.73652 15.8788 2.84564C16.6414 2.28342 17.2267 1.39384 17.5029 0.332109C16.7893 0.852979 15.9986 1.23084 15.1578 1.43451C14.4842 0.551709 13.5244 0 12.4616 0C10.4225 0 8.76866 2.03502 8.76866 4.54414C8.76866 4.90031 8.80143 5.24699 8.86477 5.57978C5.79565 5.39034 3.07436 3.58136 1.25282 0.83129C0.935004 1.50229 0.752685 2.28342 0.752685 3.11607C0.752685 4.69223 1.40512 6.0837 2.39548 6.89839C1.79042 6.87501 1.2206 6.67066 0.722941 6.3294C0.722666 6.34872 0.722666 6.36803 0.722666 6.38701C0.722666 8.58876 1.99614 10.4252 3.68521 10.8424C3.37565 10.9467 3.04875 11.002 2.71248 11.002C2.47397 11.002 2.24291 10.9738 2.01763 10.921C2.48747 12.7259 3.85101 14.0398 5.46736 14.0767C4.20325 15.2957 2.61113 16.0219 0.880473 16.0219C0.583035 16.0219 0.28835 16.0006 0 15.9582C1.63343 17.248 3.57505 18 5.66042 18C12.453 18 16.1677 11.0759 16.1677 5.07043C16.1677 4.87354 16.1641 4.67732 16.157 4.4828C16.8791 3.8423 17.5051 3.04219 18 2.13092Z" fill="#878888"/>
</svg>
