<svg width="31" height="31" viewBox="0 0 31 31" fill="none" xmlns="http://www.w3.org/2000/svg">
<circle cx="15.5" cy="15.5" r="15" fill="white" stroke="#F8F8F8"/>
<path d="M22.0002 9C21.3902 9 20.8302 8.65 20.5502 8.11L19.8302 6.66C19.3702 5.75 18.1702 5 17.1502 5H14.8602C13.8302 5 12.6302 5.75 12.1702 6.66L11.4502 8.11C11.1702 8.65 10.6102 9 10.0002 9C7.83017 9 6.11017 10.83 6.25017 12.99L6.77017 21.25C6.89017 23.31 8.00017 25 10.7602 25H21.2402C24.0002 25 25.1002 23.31 25.2302 21.25L25.7502 12.99C25.8902 10.83 24.1702 9 22.0002 9ZM14.5002 10.25H17.5002C17.9102 10.25 18.2502 10.59 18.2502 11C18.2502 11.41 17.9102 11.75 17.5002 11.75H14.5002C14.0902 11.75 13.7502 11.41 13.7502 11C13.7502 10.59 14.0902 10.25 14.5002 10.25ZM16.0002 21.12C14.1402 21.12 12.6202 19.61 12.6202 17.74C12.6202 15.87 14.1302 14.36 16.0002 14.36C17.8702 14.36 19.3802 15.87 19.3802 17.74C19.3802 19.61 17.8602 21.12 16.0002 21.12Z" fill="#BCBCBC"/>
</svg>
