<svg width="102" height="101" viewBox="0 0 102 101" fill="none" xmlns="http://www.w3.org/2000/svg">
<path d="M43.5818 59.56V96.2123H0.5C0.5 86.4915 5.03897 77.1688 13.1184 70.2952C21.1978 63.4216 32.1558 59.56 43.5818 59.56ZM75.8932 93.9215L60.066 101L63.0871 86.0092L50.2865 75.3892L67.9823 73.1992L75.8932 59.56L83.8095 73.1992L101.5 75.3892L88.6993 86.0092L91.715 101L75.8932 93.9215ZM43.5818 54.9784C25.7298 54.9784 11.2705 42.677 11.2705 27.4892C11.2705 12.3014 25.7298 0 43.5818 0C61.4339 0 75.8932 12.3014 75.8932 27.4892C75.8932 42.677 61.4339 54.9784 43.5818 54.9784Z" fill="white" fill-opacity="0.71"/>
</svg>
