<svg width="34" height="34" viewBox="0 0 34 34" fill="none" xmlns="http://www.w3.org/2000/svg">
<rect width="34" height="34" rx="8" fill="#FFFEFE" fill-opacity="0.28"/>
<path d="M7.5798 24.0093L7.5598 24.0293C7.2898 23.4393 7.1198 22.7693 7.0498 22.0293C7.1198 22.7593 7.3098 23.4193 7.5798 24.0093Z" fill="white"/>
<path d="M14.0001 15.3791C15.3146 15.3791 16.3801 14.3136 16.3801 12.9991C16.3801 11.6847 15.3146 10.6191 14.0001 10.6191C12.6857 10.6191 11.6201 11.6847 11.6201 12.9991C11.6201 14.3136 12.6857 15.3791 14.0001 15.3791Z" fill="white"/>
<path d="M21.19 7H12.81C9.17 7 7 9.17 7 12.81V21.19C7 22.28 7.19 23.23 7.56 24.03C8.42 25.93 10.26 27 12.81 27H21.19C24.83 27 27 24.83 27 21.19V18.9V12.81C27 9.17 24.83 7 21.19 7ZM25.37 17.5C24.59 16.83 23.33 16.83 22.55 17.5L18.39 21.07C17.61 21.74 16.35 21.74 15.57 21.07L15.23 20.79C14.52 20.17 13.39 20.11 12.59 20.65L8.85 23.16C8.63 22.6 8.5 21.95 8.5 21.19V12.81C8.5 9.99 9.99 8.5 12.81 8.5H21.19C24.01 8.5 25.5 9.99 25.5 12.81V17.61L25.37 17.5Z" fill="white"/>
</svg>
