<svg width="101" height="101" viewBox="0 0 101 101" fill="none" xmlns="http://www.w3.org/2000/svg">
<path d="M72.5364 83.7561L59.6818 101L46.8273 83.7561H22.9545C21.737 83.7561 20.5692 83.237 19.7083 82.3131C18.8473 81.3891 18.3636 80.1359 18.3636 78.8293V25.1416C18.3636 23.8349 18.8473 22.5818 19.7083 21.6578C20.5692 20.7339 21.737 20.2148 22.9545 20.2148H96.4091C97.6267 20.2148 98.7944 20.7339 99.6554 21.6578C100.516 22.5818 101 23.8349 101 25.1416V78.8293C101 80.1359 100.516 81.3891 99.6554 82.3131C98.7944 83.237 97.6267 83.7561 96.4091 83.7561H72.5364ZM4.59091 0H82.6364V9.85366H9.18182V64.0488H0V4.92683C0 3.62015 0.483683 2.36699 1.34465 1.44303C2.20561 0.519075 3.37332 0 4.59091 0V0Z" fill="white" fill-opacity="0.71"/>
</svg>
