<svg width="101" height="101" viewBox="0 0 101 101" fill="none" xmlns="http://www.w3.org/2000/svg">
<path d="M22.4978 82.8718L0 101V5.17949C0 3.8058 0.532052 2.48838 1.47911 1.51704C2.42617 0.545694 3.71066 0 5.05 0H95.95C97.2893 0 98.5738 0.545694 99.5209 1.51704C100.468 2.48838 101 3.8058 101 5.17949V77.6923C101 79.066 100.468 80.3834 99.5209 81.3548C98.5738 82.3261 97.2893 82.8718 95.95 82.8718H22.4978ZM45.45 56.9744V67.3333H55.55V56.9744H45.45ZM33.1634 30.1084L43.0715 32.1439C43.3526 30.7011 44.0275 29.3698 45.0176 28.3049C46.0076 27.2401 47.2721 26.4855 48.6639 26.129C50.0558 25.7724 51.5177 25.8286 52.8797 26.2909C54.2416 26.7532 55.4475 27.6027 56.3572 28.7405C57.2668 29.8783 57.8427 31.2576 58.0178 32.718C58.193 34.1784 57.9603 35.6597 57.3466 36.9897C56.733 38.3197 55.7638 39.4437 54.5517 40.2308C53.3397 41.0179 51.9346 41.4358 50.5 41.4359H45.45V51.7949H50.5C53.847 51.7938 57.1249 50.8181 59.9524 48.9812C62.7799 47.1443 65.0407 44.5218 66.472 41.4187C67.9032 38.3155 68.446 34.8594 68.0372 31.4523C67.6283 28.0452 66.2847 24.8272 64.1626 22.1726C62.0404 19.518 59.227 17.536 56.0497 16.4571C52.8723 15.3782 49.4615 15.2467 46.2142 16.0781C42.9668 16.9094 40.0164 18.6693 37.706 21.153C35.3956 23.6368 33.8203 26.7423 33.1634 30.1084V30.1084Z" fill="white" fill-opacity="0.71"/>
</svg>
