<svg width="125" height="20" viewBox="0 0 125 20" fill="none" xmlns="http://www.w3.org/2000/svg">
<g clip-path="url(#clip0_2179_13494)">
<path d="M0.707031 0V2.53673H124.573V0H0.707031ZM35.4641 4.84111C33.1096 4.84111 31.8623 5.85729 31.8623 7.62941C31.8623 8.58425 32.2167 9.28381 32.8692 9.70081C33.4764 10.0757 34.1753 10.2151 34.922 10.3787C36.6476 10.7505 37.4197 10.9159 37.4197 11.7536C37.4197 12.522 36.8533 12.8956 35.7349 12.8956C34.4535 12.8956 33.7639 12.468 33.6245 11.4438H31.7266C31.8208 13.3541 33.1821 14.5029 35.5608 14.5029C37.9612 14.5029 39.2785 13.3863 39.2785 11.5213C39.2785 10.59 38.8993 9.88546 38.1552 9.46845C37.5727 9.14191 36.8533 8.96842 35.9679 8.73296C34.4288 8.36119 33.7211 8.37482 33.7211 7.51292C33.7211 6.81461 34.2695 6.38955 35.2702 6.38955C36.4369 6.38955 37.0795 6.85736 37.1489 7.76511H38.9879C38.9161 5.92359 37.6341 4.84111 35.4641 4.84111ZM120.778 4.84111C118.448 4.84111 117.196 5.85729 117.196 7.62941C117.196 8.58425 117.546 9.28381 118.222 9.70081C118.829 10.0757 119.528 10.2151 120.275 10.3787C121.976 10.7505 122.734 10.9159 122.734 11.7536C122.734 12.522 122.211 12.8956 121.069 12.8956C119.784 12.8956 119.078 12.468 118.938 11.4438H117.041C117.159 13.3541 118.516 14.5029 120.895 14.5029C123.294 14.5029 124.632 13.3863 124.632 11.5213C124.632 10.59 124.257 9.88546 123.489 9.46845C122.906 9.14191 122.187 8.96842 121.301 8.73296C119.763 8.36119 119.055 8.37482 119.055 7.51292C119.055 6.81461 119.623 6.38955 120.623 6.38955C121.766 6.38955 122.39 6.85736 122.463 7.76511H124.303C124.233 5.92359 122.97 4.84111 120.778 4.84111ZM11.5888 4.87953C8.79311 4.87953 7.03895 6.74149 7.03895 9.70081C7.03895 12.6626 8.79249 14.5029 11.5895 14.5029C14.3641 14.5029 16.1394 12.6626 16.1394 9.70081C16.1394 6.74149 14.3635 4.87953 11.5888 4.87953ZM87.2026 4.87953C84.2885 4.87953 82.6912 6.57543 82.6912 9.70081C82.6912 12.7754 84.3183 14.5029 87.0471 14.5029C89.4717 14.5029 91.0325 13.1645 91.1719 11.1148H89.3131C89.0801 12.209 88.3303 12.8188 87.1636 12.8188C85.5588 12.8188 84.6467 11.7053 84.6467 9.70081C84.6467 7.64862 85.5247 6.54445 87.2026 6.54445C88.4146 6.54445 89.1303 7.10521 89.2938 8.13255H91.1719C91.0325 6.08036 89.6024 4.87953 87.2026 4.87953ZM0.707031 5.11189V14.2513H7.15482V12.5666H2.60432V5.11189H0.707031ZM20.5157 5.11189V11.4822C20.5157 12.5071 20.3317 12.9154 19.4698 12.9154C18.7473 12.9154 18.3471 12.6217 18.3471 11.9662V10.8632H16.4882V11.5597C16.4882 12.4457 16.5074 13.0468 17.088 13.6509C17.6258 14.2104 18.4406 14.5029 19.489 14.5029C20.6316 14.5029 21.5214 14.1807 21.9874 13.5735C22.4316 13.0146 22.4521 12.3955 22.4521 11.5795V5.11189H20.5157ZM26.1308 5.11189L22.8201 14.2513H24.8525L25.4535 12.3732H29.074L29.6936 14.2513H31.7074L28.3577 5.11189H27.2541H26.1308ZM46.753 5.11189L43.4418 14.2513H45.4363L46.0361 12.3732H49.6572L50.2768 14.2513H52.2906L48.9601 5.11189H47.8368H46.753ZM52.7553 5.11189V14.2513H54.556V6.87409L56.4545 14.2513H58.4292L60.3073 6.87409V14.2513H62.1085V5.11189H59.2614L57.4409 12.0826L55.582 5.11189H52.7553ZM63.2307 5.11189V14.2513H70.2206V12.5666H65.1087V10.2052H69.5626V8.65613H65.1087V6.67953H69.9889V5.11189H63.2307ZM71.1501 5.11189V14.2513H73.087V10.7077H75.12C76.169 10.7077 76.4708 11.0677 76.4949 12.1409L76.5135 13.1087C76.5352 13.5982 76.6071 13.9948 76.7465 14.2513H78.8377V13.9607C78.487 13.7761 78.4938 13.47 78.4697 12.9346L78.4505 11.8695C78.4021 10.7728 78.1741 10.1779 77.2887 9.87554C78.1747 9.57317 78.6636 8.82528 78.6636 7.70687C78.6636 5.93475 77.7094 5.11189 75.6814 5.11189H74.9068H71.1501ZM79.7089 5.11189V14.2513H81.626V5.11189H79.7089ZM94.2893 5.11189L90.9588 14.2513H92.9918L93.5928 12.3732H97.2132L97.8329 14.2513H99.8466L96.5162 5.11189H95.3928H94.2893ZM100.292 5.11189V14.2513H102.189V7.97764L106.004 14.2513H107.979V5.11189H106.101V11.4048L102.325 5.11189H100.292ZM111.736 5.11189L108.425 14.2513H110.419L111.039 12.3732H114.64L115.279 14.2513H117.293L113.943 5.11189H112.84H111.736ZM11.5895 6.50604C13.2215 6.50604 14.203 7.67279 14.203 9.70081C14.203 11.7295 13.2215 12.8572 11.5895 12.8572C9.95738 12.8572 8.97466 11.7295 8.97466 9.70081C8.97466 7.6511 9.95676 6.50604 11.5895 6.50604ZM73.087 6.68015H75.4106C76.296 6.68015 76.7465 7.10769 76.7465 7.90019C76.7465 8.7404 76.2929 9.12022 75.3133 9.12022H73.0864L73.087 6.68015ZM27.2535 6.95155L28.5318 10.8434H25.9567L27.2535 6.95155ZM47.8374 6.95155L49.1343 10.8434H46.5591L47.8374 6.95155ZM95.3934 6.95155L96.6903 10.8434H94.1151L95.3934 6.95155ZM112.84 6.95155L114.137 10.8434H111.542L112.84 6.95155ZM0.707031 16.8073V19.344H124.573V16.8073H0.707031Z" fill="#EA1D2A"/>
</g>
<defs>
<clipPath id="clip0_2179_13494">
<rect width="124" height="19.344" fill="white" transform="translate(0.707031)"/>
</clipPath>
</defs>
</svg>
